<mxfile host="Electron" agent="Mozilla/5.0 (Macintosh; Intel Mac OS X 10_15_7) AppleWebKit/537.36 (KHTML, like Gecko) draw.io/26.0.9 Chrome/128.0.6613.186 Electron/32.2.5 Safari/537.36" version="26.0.9" pages="2">
  <diagram name="Original_MCD" id="zbgMLOIdyWvdo2cz29zy">
    <mxGraphModel dx="1885" dy="1380" grid="1" gridSize="10" guides="1" tooltips="1" connect="1" arrows="1" fold="1" page="1" pageScale="1" pageWidth="1654" pageHeight="1169" math="0" shadow="0">
      <root>
        <mxCell id="1IPGKusEmB-4JME2bSzw-0" />
        <mxCell id="1IPGKusEmB-4JME2bSzw-1" parent="1IPGKusEmB-4JME2bSzw-0" />
        <mxCell id="1IPGKusEmB-4JME2bSzw-2" value="Repères" style="swimlane;fontStyle=0;childLayout=stackLayout;horizontal=1;startSize=30;horizontalStack=0;resizeParent=1;resizeParentMax=0;resizeLast=0;collapsible=1;marginBottom=0;whiteSpace=wrap;html=1;" parent="1IPGKusEmB-4JME2bSzw-1" vertex="1">
          <mxGeometry x="742" y="444" width="140" height="150" as="geometry" />
        </mxCell>
        <mxCell id="1IPGKusEmB-4JME2bSzw-3" value="First part" style="text;strokeColor=none;fillColor=none;align=left;verticalAlign=middle;spacingLeft=4;spacingRight=4;overflow=hidden;points=[[0,0.5],[1,0.5]];portConstraint=eastwest;rotatable=0;whiteSpace=wrap;html=1;" parent="1IPGKusEmB-4JME2bSzw-2" vertex="1">
          <mxGeometry y="30" width="140" height="30" as="geometry" />
        </mxCell>
        <mxCell id="1IPGKusEmB-4JME2bSzw-4" value="Second part" style="text;strokeColor=none;fillColor=none;align=left;verticalAlign=middle;spacingLeft=4;spacingRight=4;overflow=hidden;points=[[0,0.5],[1,0.5]];portConstraint=eastwest;rotatable=0;whiteSpace=wrap;html=1;" parent="1IPGKusEmB-4JME2bSzw-2" vertex="1">
          <mxGeometry y="60" width="140" height="30" as="geometry" />
        </mxCell>
        <mxCell id="1IPGKusEmB-4JME2bSzw-5" value="Pages" style="text;strokeColor=none;fillColor=none;align=left;verticalAlign=middle;spacingLeft=4;spacingRight=4;overflow=hidden;points=[[0,0.5],[1,0.5]];portConstraint=eastwest;rotatable=0;whiteSpace=wrap;html=1;" parent="1IPGKusEmB-4JME2bSzw-2" vertex="1">
          <mxGeometry y="90" width="140" height="30" as="geometry" />
        </mxCell>
        <mxCell id="8THhAFKIlvipoxMx3lbf-1" value="&quot;Vita&quot;" style="text;strokeColor=none;fillColor=none;align=left;verticalAlign=middle;spacingLeft=4;spacingRight=4;overflow=hidden;points=[[0,0.5],[1,0.5]];portConstraint=eastwest;rotatable=0;whiteSpace=wrap;html=1;" parent="1IPGKusEmB-4JME2bSzw-2" vertex="1">
          <mxGeometry y="120" width="140" height="30" as="geometry" />
        </mxCell>
        <mxCell id="1IPGKusEmB-4JME2bSzw-6" style="edgeStyle=orthogonalEdgeStyle;rounded=0;orthogonalLoop=1;jettySize=auto;html=1;exitX=0.5;exitY=0;exitDx=0;exitDy=0;entryX=0.5;entryY=0;entryDx=0;entryDy=0;startArrow=classic;startFill=0;" parent="1IPGKusEmB-4JME2bSzw-1" target="1IPGKusEmB-4JME2bSzw-40" edge="1">
          <mxGeometry relative="1" as="geometry">
            <mxPoint x="812" y="794" as="sourcePoint" />
            <Array as="points">
              <mxPoint x="812" y="624" />
              <mxPoint x="962" y="624" />
              <mxPoint x="962" y="224" />
              <mxPoint x="812" y="224" />
            </Array>
          </mxGeometry>
        </mxCell>
        <mxCell id="1IPGKusEmB-4JME2bSzw-7" value="Is indexed in" style="edgeLabel;html=1;align=center;verticalAlign=middle;resizable=0;points=[];" parent="1IPGKusEmB-4JME2bSzw-6" vertex="1" connectable="0">
          <mxGeometry x="-0.3569" y="2" relative="1" as="geometry">
            <mxPoint as="offset" />
          </mxGeometry>
        </mxCell>
        <mxCell id="1IPGKusEmB-4JME2bSzw-8" value="0,n" style="edgeLabel;html=1;align=center;verticalAlign=middle;resizable=0;points=[];" parent="1IPGKusEmB-4JME2bSzw-6" vertex="1" connectable="0">
          <mxGeometry x="-0.9448" y="-2" relative="1" as="geometry">
            <mxPoint y="1" as="offset" />
          </mxGeometry>
        </mxCell>
        <mxCell id="1IPGKusEmB-4JME2bSzw-9" style="edgeStyle=orthogonalEdgeStyle;rounded=0;orthogonalLoop=1;jettySize=auto;html=1;exitX=0.25;exitY=0;exitDx=0;exitDy=0;entryX=0.25;entryY=0;entryDx=0;entryDy=0;startArrow=classic;startFill=0;" parent="1IPGKusEmB-4JME2bSzw-1" target="1IPGKusEmB-4JME2bSzw-2" edge="1">
          <mxGeometry relative="1" as="geometry">
            <Array as="points">
              <mxPoint x="747" y="679" />
              <mxPoint x="717" y="679" />
              <mxPoint x="717" y="424" />
              <mxPoint x="777" y="424" />
            </Array>
            <mxPoint x="747" y="794" as="sourcePoint" />
          </mxGeometry>
        </mxCell>
        <mxCell id="1IPGKusEmB-4JME2bSzw-10" value="Can be found in&amp;nbsp;" style="edgeLabel;html=1;align=center;verticalAlign=middle;resizable=0;points=[];" parent="1IPGKusEmB-4JME2bSzw-9" vertex="1" connectable="0">
          <mxGeometry x="-0.5491" y="-1" relative="1" as="geometry">
            <mxPoint as="offset" />
          </mxGeometry>
        </mxCell>
        <mxCell id="1IPGKusEmB-4JME2bSzw-11" value="0,n" style="edgeLabel;html=1;align=center;verticalAlign=middle;resizable=0;points=[];" parent="1IPGKusEmB-4JME2bSzw-9" vertex="1" connectable="0">
          <mxGeometry x="0.8197" y="2" relative="1" as="geometry">
            <mxPoint as="offset" />
          </mxGeometry>
        </mxCell>
        <mxCell id="1IPGKusEmB-4JME2bSzw-12" value="0,n" style="edgeLabel;html=1;align=center;verticalAlign=middle;resizable=0;points=[];" parent="1IPGKusEmB-4JME2bSzw-9" vertex="1" connectable="0">
          <mxGeometry x="-0.8977" y="-3" relative="1" as="geometry">
            <mxPoint y="1" as="offset" />
          </mxGeometry>
        </mxCell>
        <mxCell id="1IPGKusEmB-4JME2bSzw-13" value="&lt;meta charset=&quot;utf-8&quot;&gt;&lt;span style=&quot;color: rgb(240, 240, 240); font-family: Helvetica; font-size: 12px; font-style: normal; font-variant-ligatures: normal; font-variant-caps: normal; font-weight: 400; letter-spacing: normal; orphans: 2; text-align: center; text-indent: 0px; text-transform: none; widows: 2; word-spacing: 0px; -webkit-text-stroke-width: 0px; white-space: normal; background-color: rgb(27, 29, 30); text-decoration-thickness: initial; text-decoration-style: initial; text-decoration-color: initial; display: inline !important; float: none;&quot;&gt;Tavola de luoghi dove sono l&#39;opere descritte&lt;/span&gt;" style="swimlane;fontStyle=0;childLayout=stackLayout;horizontal=1;startSize=30;horizontalStack=0;resizeParent=1;resizeParentMax=0;resizeLast=0;collapsible=1;marginBottom=0;whiteSpace=wrap;html=1;" parent="1IPGKusEmB-4JME2bSzw-1" vertex="1">
          <mxGeometry x="677" y="794" width="260" height="150" as="geometry" />
        </mxCell>
        <mxCell id="1IPGKusEmB-4JME2bSzw-14" value="Oeuvre (description)" style="text;strokeColor=none;fillColor=none;align=left;verticalAlign=middle;spacingLeft=4;spacingRight=4;overflow=hidden;points=[[0,0.5],[1,0.5]];portConstraint=eastwest;rotatable=0;whiteSpace=wrap;html=1;" parent="1IPGKusEmB-4JME2bSzw-13" vertex="1">
          <mxGeometry y="30" width="260" height="30" as="geometry" />
        </mxCell>
        <mxCell id="1IPGKusEmB-4JME2bSzw-15" value="Location (General)" style="text;strokeColor=none;fillColor=none;align=left;verticalAlign=middle;spacingLeft=4;spacingRight=4;overflow=hidden;points=[[0,0.5],[1,0.5]];portConstraint=eastwest;rotatable=0;whiteSpace=wrap;html=1;" parent="1IPGKusEmB-4JME2bSzw-13" vertex="1">
          <mxGeometry y="60" width="260" height="30" as="geometry" />
        </mxCell>
        <mxCell id="1IPGKusEmB-4JME2bSzw-16" value="Location (Specific)" style="text;strokeColor=none;fillColor=none;align=left;verticalAlign=middle;spacingLeft=4;spacingRight=4;overflow=hidden;points=[[0,0.5],[1,0.5]];portConstraint=eastwest;rotatable=0;whiteSpace=wrap;html=1;" parent="1IPGKusEmB-4JME2bSzw-13" vertex="1">
          <mxGeometry y="90" width="260" height="30" as="geometry" />
        </mxCell>
        <mxCell id="1IPGKusEmB-4JME2bSzw-17" value="Pages" style="text;strokeColor=none;fillColor=none;align=left;verticalAlign=middle;spacingLeft=4;spacingRight=4;overflow=hidden;points=[[0,0.5],[1,0.5]];portConstraint=eastwest;rotatable=0;whiteSpace=wrap;html=1;" parent="1IPGKusEmB-4JME2bSzw-13" vertex="1">
          <mxGeometry y="120" width="260" height="30" as="geometry" />
        </mxCell>
        <mxCell id="1IPGKusEmB-4JME2bSzw-22" value="Tavola delle vite de gli artefici" style="swimlane;fontStyle=0;childLayout=stackLayout;horizontal=1;startSize=30;horizontalStack=0;resizeParent=1;resizeParentMax=0;resizeLast=0;collapsible=1;marginBottom=0;whiteSpace=wrap;html=1;" parent="1IPGKusEmB-4JME2bSzw-1" vertex="1">
          <mxGeometry x="1067" y="499" width="260" height="90" as="geometry" />
        </mxCell>
        <mxCell id="1IPGKusEmB-4JME2bSzw-23" value="Personne considérée artiste/artisan" style="text;strokeColor=none;fillColor=none;align=left;verticalAlign=middle;spacingLeft=4;spacingRight=4;overflow=hidden;points=[[0,0.5],[1,0.5]];portConstraint=eastwest;rotatable=0;whiteSpace=wrap;html=1;" parent="1IPGKusEmB-4JME2bSzw-22" vertex="1">
          <mxGeometry y="30" width="260" height="30" as="geometry" />
        </mxCell>
        <mxCell id="1IPGKusEmB-4JME2bSzw-25" value="Page" style="text;strokeColor=none;fillColor=none;align=left;verticalAlign=middle;spacingLeft=4;spacingRight=4;overflow=hidden;points=[[0,0.5],[1,0.5]];portConstraint=eastwest;rotatable=0;whiteSpace=wrap;html=1;" parent="1IPGKusEmB-4JME2bSzw-22" vertex="1">
          <mxGeometry y="60" width="260" height="30" as="geometry" />
        </mxCell>
        <mxCell id="1IPGKusEmB-4JME2bSzw-26" style="edgeStyle=orthogonalEdgeStyle;rounded=0;orthogonalLoop=1;jettySize=auto;html=1;exitX=0.5;exitY=0;exitDx=0;exitDy=0;entryX=0;entryY=0.25;entryDx=0;entryDy=0;startArrow=classic;startFill=0;" parent="1IPGKusEmB-4JME2bSzw-1" source="1IPGKusEmB-4JME2bSzw-30" target="1IPGKusEmB-4JME2bSzw-40" edge="1">
          <mxGeometry relative="1" as="geometry" />
        </mxCell>
        <mxCell id="1IPGKusEmB-4JME2bSzw-27" value="Is indexed in" style="edgeLabel;html=1;align=center;verticalAlign=middle;resizable=0;points=[];" parent="1IPGKusEmB-4JME2bSzw-26" vertex="1" connectable="0">
          <mxGeometry x="-0.4209" y="-4" relative="1" as="geometry">
            <mxPoint as="offset" />
          </mxGeometry>
        </mxCell>
        <mxCell id="1IPGKusEmB-4JME2bSzw-28" value="1,1" style="edgeLabel;html=1;align=center;verticalAlign=middle;resizable=0;points=[];" parent="1IPGKusEmB-4JME2bSzw-26" vertex="1" connectable="0">
          <mxGeometry x="-0.8475" relative="1" as="geometry">
            <mxPoint y="1" as="offset" />
          </mxGeometry>
        </mxCell>
        <mxCell id="1IPGKusEmB-4JME2bSzw-29" value="1,1" style="edgeLabel;html=1;align=center;verticalAlign=middle;resizable=0;points=[];" parent="1IPGKusEmB-4JME2bSzw-26" vertex="1" connectable="0">
          <mxGeometry x="0.8706" y="1" relative="1" as="geometry">
            <mxPoint as="offset" />
          </mxGeometry>
        </mxCell>
        <mxCell id="1IPGKusEmB-4JME2bSzw-30" value="Tavola de Ritratti che sono nominati" style="swimlane;fontStyle=0;childLayout=stackLayout;horizontal=1;startSize=30;horizontalStack=0;resizeParent=1;resizeParentMax=0;resizeLast=0;collapsible=1;marginBottom=0;whiteSpace=wrap;html=1;" parent="1IPGKusEmB-4JME2bSzw-1" vertex="1">
          <mxGeometry x="327" y="514" width="260" height="90" as="geometry" />
        </mxCell>
        <mxCell id="1IPGKusEmB-4JME2bSzw-31" value="Personne représentée" style="text;strokeColor=none;fillColor=none;align=left;verticalAlign=middle;spacingLeft=4;spacingRight=4;overflow=hidden;points=[[0,0.5],[1,0.5]];portConstraint=eastwest;rotatable=0;whiteSpace=wrap;html=1;" parent="1IPGKusEmB-4JME2bSzw-30" vertex="1">
          <mxGeometry y="30" width="260" height="30" as="geometry" />
        </mxCell>
        <mxCell id="1IPGKusEmB-4JME2bSzw-32" value="Page" style="text;strokeColor=none;fillColor=none;align=left;verticalAlign=middle;spacingLeft=4;spacingRight=4;overflow=hidden;points=[[0,0.5],[1,0.5]];portConstraint=eastwest;rotatable=0;whiteSpace=wrap;html=1;" parent="1IPGKusEmB-4JME2bSzw-30" vertex="1">
          <mxGeometry y="60" width="260" height="30" as="geometry" />
        </mxCell>
        <mxCell id="1IPGKusEmB-4JME2bSzw-33" style="edgeStyle=orthogonalEdgeStyle;rounded=0;orthogonalLoop=1;jettySize=auto;html=1;startArrow=classic;startFill=0;" parent="1IPGKusEmB-4JME2bSzw-1" source="1IPGKusEmB-4JME2bSzw-40" target="1IPGKusEmB-4JME2bSzw-2" edge="1">
          <mxGeometry relative="1" as="geometry" />
        </mxCell>
        <mxCell id="1IPGKusEmB-4JME2bSzw-34" value="Can be found in&amp;nbsp;" style="edgeLabel;html=1;align=center;verticalAlign=middle;resizable=0;points=[];" parent="1IPGKusEmB-4JME2bSzw-33" vertex="1" connectable="0">
          <mxGeometry x="-0.15" y="-4" relative="1" as="geometry">
            <mxPoint y="1" as="offset" />
          </mxGeometry>
        </mxCell>
        <mxCell id="1IPGKusEmB-4JME2bSzw-35" value="0,n" style="edgeLabel;html=1;align=center;verticalAlign=middle;resizable=0;points=[];" parent="1IPGKusEmB-4JME2bSzw-33" vertex="1" connectable="0">
          <mxGeometry x="0.4545" y="2" relative="1" as="geometry">
            <mxPoint as="offset" />
          </mxGeometry>
        </mxCell>
        <mxCell id="1IPGKusEmB-4JME2bSzw-40" value="Indice copioso della cose più notabili" style="swimlane;fontStyle=0;childLayout=stackLayout;horizontal=1;startSize=30;horizontalStack=0;resizeParent=1;resizeParentMax=0;resizeLast=0;collapsible=1;marginBottom=0;whiteSpace=wrap;html=1;" parent="1IPGKusEmB-4JME2bSzw-1" vertex="1">
          <mxGeometry x="682" y="244" width="260" height="90" as="geometry" />
        </mxCell>
        <mxCell id="1IPGKusEmB-4JME2bSzw-41" value="Name" style="text;strokeColor=none;fillColor=none;align=left;verticalAlign=middle;spacingLeft=4;spacingRight=4;overflow=hidden;points=[[0,0.5],[1,0.5]];portConstraint=eastwest;rotatable=0;whiteSpace=wrap;html=1;" parent="1IPGKusEmB-4JME2bSzw-40" vertex="1">
          <mxGeometry y="30" width="260" height="30" as="geometry" />
        </mxCell>
        <mxCell id="1IPGKusEmB-4JME2bSzw-43" value="Page" style="text;strokeColor=none;fillColor=none;align=left;verticalAlign=middle;spacingLeft=4;spacingRight=4;overflow=hidden;points=[[0,0.5],[1,0.5]];portConstraint=eastwest;rotatable=0;whiteSpace=wrap;html=1;" parent="1IPGKusEmB-4JME2bSzw-40" vertex="1">
          <mxGeometry y="60" width="260" height="30" as="geometry" />
        </mxCell>
        <mxCell id="1IPGKusEmB-4JME2bSzw-44" style="edgeStyle=orthogonalEdgeStyle;rounded=0;orthogonalLoop=1;jettySize=auto;html=1;exitX=0.5;exitY=0;exitDx=0;exitDy=0;entryX=0.999;entryY=0.169;entryDx=0;entryDy=0;entryPerimeter=0;startArrow=classic;startFill=0;" parent="1IPGKusEmB-4JME2bSzw-1" source="1IPGKusEmB-4JME2bSzw-22" target="1IPGKusEmB-4JME2bSzw-40" edge="1">
          <mxGeometry relative="1" as="geometry" />
        </mxCell>
        <mxCell id="1IPGKusEmB-4JME2bSzw-45" value="Is indexed in" style="edgeLabel;html=1;align=center;verticalAlign=middle;resizable=0;points=[];" parent="1IPGKusEmB-4JME2bSzw-44" vertex="1" connectable="0">
          <mxGeometry x="-0.3997" y="2" relative="1" as="geometry">
            <mxPoint as="offset" />
          </mxGeometry>
        </mxCell>
        <mxCell id="1IPGKusEmB-4JME2bSzw-46" value="1,1" style="edgeLabel;html=1;align=center;verticalAlign=middle;resizable=0;points=[];" parent="1IPGKusEmB-4JME2bSzw-44" vertex="1" connectable="0">
          <mxGeometry x="-0.8709" y="-4" relative="1" as="geometry">
            <mxPoint y="1" as="offset" />
          </mxGeometry>
        </mxCell>
        <mxCell id="1IPGKusEmB-4JME2bSzw-47" value="1,1" style="edgeLabel;html=1;align=center;verticalAlign=middle;resizable=0;points=[];" parent="1IPGKusEmB-4JME2bSzw-44" vertex="1" connectable="0">
          <mxGeometry x="0.8546" y="-6" relative="1" as="geometry">
            <mxPoint as="offset" />
          </mxGeometry>
        </mxCell>
        <mxCell id="1IPGKusEmB-4JME2bSzw-48" style="edgeStyle=orthogonalEdgeStyle;rounded=0;orthogonalLoop=1;jettySize=auto;html=1;exitX=1;exitY=0.25;exitDx=0;exitDy=0;entryX=-0.01;entryY=0.171;entryDx=0;entryDy=0;entryPerimeter=0;startArrow=classic;startFill=0;" parent="1IPGKusEmB-4JME2bSzw-1" source="1IPGKusEmB-4JME2bSzw-30" target="1IPGKusEmB-4JME2bSzw-2" edge="1">
          <mxGeometry relative="1" as="geometry" />
        </mxCell>
        <mxCell id="1IPGKusEmB-4JME2bSzw-49" value="Can be found in" style="edgeLabel;html=1;align=center;verticalAlign=middle;resizable=0;points=[];" parent="1IPGKusEmB-4JME2bSzw-48" vertex="1" connectable="0">
          <mxGeometry x="-0.3888" y="4" relative="1" as="geometry">
            <mxPoint as="offset" />
          </mxGeometry>
        </mxCell>
        <mxCell id="1IPGKusEmB-4JME2bSzw-50" value="0,n" style="edgeLabel;html=1;align=center;verticalAlign=middle;resizable=0;points=[];" parent="1IPGKusEmB-4JME2bSzw-48" vertex="1" connectable="0">
          <mxGeometry x="0.6489" y="2" relative="1" as="geometry">
            <mxPoint x="1" as="offset" />
          </mxGeometry>
        </mxCell>
        <mxCell id="1IPGKusEmB-4JME2bSzw-51" value="0,n" style="edgeLabel;html=1;align=center;verticalAlign=middle;resizable=0;points=[];" parent="1IPGKusEmB-4JME2bSzw-48" vertex="1" connectable="0">
          <mxGeometry x="-0.8437" y="3" relative="1" as="geometry">
            <mxPoint x="-1" as="offset" />
          </mxGeometry>
        </mxCell>
        <mxCell id="1IPGKusEmB-4JME2bSzw-52" style="edgeStyle=orthogonalEdgeStyle;rounded=0;orthogonalLoop=1;jettySize=auto;html=1;exitX=0;exitY=0.25;exitDx=0;exitDy=0;entryX=0.999;entryY=0.112;entryDx=0;entryDy=0;entryPerimeter=0;startArrow=classic;startFill=0;" parent="1IPGKusEmB-4JME2bSzw-1" source="1IPGKusEmB-4JME2bSzw-22" target="1IPGKusEmB-4JME2bSzw-2" edge="1">
          <mxGeometry relative="1" as="geometry" />
        </mxCell>
        <mxCell id="1IPGKusEmB-4JME2bSzw-53" value="Can be found in" style="edgeLabel;html=1;align=center;verticalAlign=middle;resizable=0;points=[];" parent="1IPGKusEmB-4JME2bSzw-52" vertex="1" connectable="0">
          <mxGeometry x="-0.5697" y="-4" relative="1" as="geometry">
            <mxPoint as="offset" />
          </mxGeometry>
        </mxCell>
        <mxCell id="1IPGKusEmB-4JME2bSzw-54" value="0,n" style="edgeLabel;html=1;align=center;verticalAlign=middle;resizable=0;points=[];" parent="1IPGKusEmB-4JME2bSzw-52" vertex="1" connectable="0">
          <mxGeometry x="0.7563" y="-1" relative="1" as="geometry">
            <mxPoint as="offset" />
          </mxGeometry>
        </mxCell>
      </root>
    </mxGraphModel>
  </diagram>
  <diagram id="yT-jIKlCaI88aO55WRhO" name="Original_MLD">
    <mxGraphModel dx="2836" dy="1928" grid="1" gridSize="10" guides="1" tooltips="1" connect="1" arrows="1" fold="1" page="1" pageScale="1" pageWidth="3300" pageHeight="2339" math="0" shadow="0">
      <root>
        <mxCell id="0" />
        <mxCell id="1" parent="0" />
        <mxCell id="lNLqZQGqbrdsQ3avqAJ8-221" value="" style="group" vertex="1" connectable="0" parent="1">
          <mxGeometry x="410" y="470" width="2560" height="1210" as="geometry" />
        </mxCell>
        <mxCell id="lNLqZQGqbrdsQ3avqAJ8-1" value="Tavola de Luoghi dove sono l&#39;opere descritte" style="shape=table;startSize=30;container=1;collapsible=1;childLayout=tableLayout;fixedRows=1;rowLines=0;fontStyle=1;align=center;resizeLast=1;html=1;" vertex="1" parent="lNLqZQGqbrdsQ3avqAJ8-221">
          <mxGeometry x="250" y="100" width="360" height="410" as="geometry" />
        </mxCell>
        <mxCell id="lNLqZQGqbrdsQ3avqAJ8-2" value="" style="shape=tableRow;horizontal=0;startSize=0;swimlaneHead=0;swimlaneBody=0;fillColor=none;collapsible=0;dropTarget=0;points=[[0,0.5],[1,0.5]];portConstraint=eastwest;top=0;left=0;right=0;bottom=1;" vertex="1" parent="lNLqZQGqbrdsQ3avqAJ8-1">
          <mxGeometry y="30" width="360" height="30" as="geometry" />
        </mxCell>
        <mxCell id="lNLqZQGqbrdsQ3avqAJ8-3" value="PK" style="shape=partialRectangle;connectable=0;fillColor=none;top=0;left=0;bottom=0;right=0;fontStyle=1;overflow=hidden;whiteSpace=wrap;html=1;" vertex="1" parent="lNLqZQGqbrdsQ3avqAJ8-2">
          <mxGeometry width="60" height="30" as="geometry">
            <mxRectangle width="60" height="30" as="alternateBounds" />
          </mxGeometry>
        </mxCell>
        <mxCell id="lNLqZQGqbrdsQ3avqAJ8-4" value="L" style="shape=partialRectangle;connectable=0;fillColor=none;top=0;left=0;bottom=0;right=0;align=left;spacingLeft=6;fontStyle=5;overflow=hidden;whiteSpace=wrap;html=1;" vertex="1" parent="lNLqZQGqbrdsQ3avqAJ8-2">
          <mxGeometry x="60" width="300" height="30" as="geometry">
            <mxRectangle width="300" height="30" as="alternateBounds" />
          </mxGeometry>
        </mxCell>
        <mxCell id="lNLqZQGqbrdsQ3avqAJ8-5" value="" style="shape=tableRow;horizontal=0;startSize=0;swimlaneHead=0;swimlaneBody=0;fillColor=none;collapsible=0;dropTarget=0;points=[[0,0.5],[1,0.5]];portConstraint=eastwest;top=0;left=0;right=0;bottom=0;" vertex="1" parent="lNLqZQGqbrdsQ3avqAJ8-1">
          <mxGeometry y="60" width="360" height="30" as="geometry" />
        </mxCell>
        <mxCell id="lNLqZQGqbrdsQ3avqAJ8-6" value="" style="shape=partialRectangle;connectable=0;fillColor=none;top=0;left=0;bottom=0;right=0;editable=1;overflow=hidden;whiteSpace=wrap;html=1;" vertex="1" parent="lNLqZQGqbrdsQ3avqAJ8-5">
          <mxGeometry width="60" height="30" as="geometry">
            <mxRectangle width="60" height="30" as="alternateBounds" />
          </mxGeometry>
        </mxCell>
        <mxCell id="lNLqZQGqbrdsQ3avqAJ8-7" value="Description" style="shape=partialRectangle;connectable=0;fillColor=none;top=0;left=0;bottom=0;right=0;align=left;spacingLeft=6;overflow=hidden;whiteSpace=wrap;html=1;" vertex="1" parent="lNLqZQGqbrdsQ3avqAJ8-5">
          <mxGeometry x="60" width="300" height="30" as="geometry">
            <mxRectangle width="300" height="30" as="alternateBounds" />
          </mxGeometry>
        </mxCell>
        <mxCell id="lNLqZQGqbrdsQ3avqAJ8-8" value="" style="shape=tableRow;horizontal=0;startSize=0;swimlaneHead=0;swimlaneBody=0;fillColor=none;collapsible=0;dropTarget=0;points=[[0,0.5],[1,0.5]];portConstraint=eastwest;top=0;left=0;right=0;bottom=0;" vertex="1" parent="lNLqZQGqbrdsQ3avqAJ8-1">
          <mxGeometry y="90" width="360" height="30" as="geometry" />
        </mxCell>
        <mxCell id="lNLqZQGqbrdsQ3avqAJ8-9" value="FK_AG" style="shape=partialRectangle;connectable=0;fillColor=none;top=0;left=0;bottom=0;right=0;editable=1;overflow=hidden;whiteSpace=wrap;html=1;" vertex="1" parent="lNLqZQGqbrdsQ3avqAJ8-8">
          <mxGeometry width="60" height="30" as="geometry">
            <mxRectangle width="60" height="30" as="alternateBounds" />
          </mxGeometry>
        </mxCell>
        <mxCell id="lNLqZQGqbrdsQ3avqAJ8-10" value="Attribution/Artiste_1" style="shape=partialRectangle;connectable=0;fillColor=none;top=0;left=0;bottom=0;right=0;align=left;spacingLeft=6;overflow=hidden;whiteSpace=wrap;html=1;" vertex="1" parent="lNLqZQGqbrdsQ3avqAJ8-8">
          <mxGeometry x="60" width="300" height="30" as="geometry">
            <mxRectangle width="300" height="30" as="alternateBounds" />
          </mxGeometry>
        </mxCell>
        <mxCell id="lNLqZQGqbrdsQ3avqAJ8-11" value="" style="shape=tableRow;horizontal=0;startSize=0;swimlaneHead=0;swimlaneBody=0;fillColor=none;collapsible=0;dropTarget=0;points=[[0,0.5],[1,0.5]];portConstraint=eastwest;top=0;left=0;right=0;bottom=0;" vertex="1" parent="lNLqZQGqbrdsQ3avqAJ8-1">
          <mxGeometry y="120" width="360" height="40" as="geometry" />
        </mxCell>
        <mxCell id="lNLqZQGqbrdsQ3avqAJ8-12" value="FK_AG" style="shape=partialRectangle;connectable=0;fillColor=none;top=0;left=0;bottom=0;right=0;editable=1;overflow=hidden;whiteSpace=wrap;html=1;" vertex="1" parent="lNLqZQGqbrdsQ3avqAJ8-11">
          <mxGeometry width="60" height="40" as="geometry">
            <mxRectangle width="60" height="40" as="alternateBounds" />
          </mxGeometry>
        </mxCell>
        <mxCell id="lNLqZQGqbrdsQ3avqAJ8-13" value="Attribution/Artiste_2" style="shape=partialRectangle;connectable=0;fillColor=none;top=0;left=0;bottom=0;right=0;align=left;spacingLeft=6;overflow=hidden;whiteSpace=wrap;html=1;" vertex="1" parent="lNLqZQGqbrdsQ3avqAJ8-11">
          <mxGeometry x="60" width="300" height="40" as="geometry">
            <mxRectangle width="300" height="40" as="alternateBounds" />
          </mxGeometry>
        </mxCell>
        <mxCell id="lNLqZQGqbrdsQ3avqAJ8-14" style="shape=tableRow;horizontal=0;startSize=0;swimlaneHead=0;swimlaneBody=0;fillColor=none;collapsible=0;dropTarget=0;points=[[0,0.5],[1,0.5]];portConstraint=eastwest;top=0;left=0;right=0;bottom=0;" vertex="1" parent="lNLqZQGqbrdsQ3avqAJ8-1">
          <mxGeometry y="160" width="360" height="50" as="geometry" />
        </mxCell>
        <mxCell id="lNLqZQGqbrdsQ3avqAJ8-15" value="FK_LS" style="shape=partialRectangle;connectable=0;fillColor=none;top=0;left=0;bottom=0;right=0;editable=1;overflow=hidden;whiteSpace=wrap;html=1;" vertex="1" parent="lNLqZQGqbrdsQ3avqAJ8-14">
          <mxGeometry width="60" height="50" as="geometry">
            <mxRectangle width="60" height="50" as="alternateBounds" />
          </mxGeometry>
        </mxCell>
        <mxCell id="lNLqZQGqbrdsQ3avqAJ8-16" value="Localisation_Spécifique" style="shape=partialRectangle;connectable=0;fillColor=none;top=0;left=0;bottom=0;right=0;align=left;spacingLeft=6;overflow=hidden;whiteSpace=wrap;html=1;" vertex="1" parent="lNLqZQGqbrdsQ3avqAJ8-14">
          <mxGeometry x="60" width="300" height="50" as="geometry">
            <mxRectangle width="300" height="50" as="alternateBounds" />
          </mxGeometry>
        </mxCell>
        <mxCell id="lNLqZQGqbrdsQ3avqAJ8-17" style="shape=tableRow;horizontal=0;startSize=0;swimlaneHead=0;swimlaneBody=0;fillColor=none;collapsible=0;dropTarget=0;points=[[0,0.5],[1,0.5]];portConstraint=eastwest;top=0;left=0;right=0;bottom=0;" vertex="1" parent="lNLqZQGqbrdsQ3avqAJ8-1">
          <mxGeometry y="210" width="360" height="50" as="geometry" />
        </mxCell>
        <mxCell id="lNLqZQGqbrdsQ3avqAJ8-18" value="FK_LG" style="shape=partialRectangle;connectable=0;fillColor=none;top=0;left=0;bottom=0;right=0;editable=1;overflow=hidden;whiteSpace=wrap;html=1;" vertex="1" parent="lNLqZQGqbrdsQ3avqAJ8-17">
          <mxGeometry width="60" height="50" as="geometry">
            <mxRectangle width="60" height="50" as="alternateBounds" />
          </mxGeometry>
        </mxCell>
        <mxCell id="lNLqZQGqbrdsQ3avqAJ8-19" value="Localisation_Générale" style="shape=partialRectangle;connectable=0;fillColor=none;top=0;left=0;bottom=0;right=0;align=left;spacingLeft=6;overflow=hidden;whiteSpace=wrap;html=1;" vertex="1" parent="lNLqZQGqbrdsQ3avqAJ8-17">
          <mxGeometry x="60" width="300" height="50" as="geometry">
            <mxRectangle width="300" height="50" as="alternateBounds" />
          </mxGeometry>
        </mxCell>
        <mxCell id="lNLqZQGqbrdsQ3avqAJ8-23" style="shape=tableRow;horizontal=0;startSize=0;swimlaneHead=0;swimlaneBody=0;fillColor=none;collapsible=0;dropTarget=0;points=[[0,0.5],[1,0.5]];portConstraint=eastwest;top=0;left=0;right=0;bottom=0;" vertex="1" parent="lNLqZQGqbrdsQ3avqAJ8-1">
          <mxGeometry y="260" width="360" height="50" as="geometry" />
        </mxCell>
        <mxCell id="lNLqZQGqbrdsQ3avqAJ8-24" value="FK_S" style="shape=partialRectangle;connectable=0;fillColor=none;top=0;left=0;bottom=0;right=0;editable=1;overflow=hidden;whiteSpace=wrap;html=1;" vertex="1" parent="lNLqZQGqbrdsQ3avqAJ8-23">
          <mxGeometry width="60" height="50" as="geometry">
            <mxRectangle width="60" height="50" as="alternateBounds" />
          </mxGeometry>
        </mxCell>
        <mxCell id="lNLqZQGqbrdsQ3avqAJ8-25" value="Section" style="shape=partialRectangle;connectable=0;fillColor=none;top=0;left=0;bottom=0;right=0;align=left;spacingLeft=6;overflow=hidden;whiteSpace=wrap;html=1;" vertex="1" parent="lNLqZQGqbrdsQ3avqAJ8-23">
          <mxGeometry x="60" width="300" height="50" as="geometry">
            <mxRectangle width="300" height="50" as="alternateBounds" />
          </mxGeometry>
        </mxCell>
        <mxCell id="lNLqZQGqbrdsQ3avqAJ8-29" style="shape=tableRow;horizontal=0;startSize=0;swimlaneHead=0;swimlaneBody=0;fillColor=none;collapsible=0;dropTarget=0;points=[[0,0.5],[1,0.5]];portConstraint=eastwest;top=0;left=0;right=0;bottom=0;" vertex="1" parent="lNLqZQGqbrdsQ3avqAJ8-1">
          <mxGeometry y="310" width="360" height="50" as="geometry" />
        </mxCell>
        <mxCell id="lNLqZQGqbrdsQ3avqAJ8-30" value="FK_AV" style="shape=partialRectangle;connectable=0;fillColor=none;top=0;left=0;bottom=0;right=0;editable=1;overflow=hidden;whiteSpace=wrap;html=1;" vertex="1" parent="lNLqZQGqbrdsQ3avqAJ8-29">
          <mxGeometry width="60" height="50" as="geometry">
            <mxRectangle width="60" height="50" as="alternateBounds" />
          </mxGeometry>
        </mxCell>
        <mxCell id="lNLqZQGqbrdsQ3avqAJ8-31" value="Vita" style="shape=partialRectangle;connectable=0;fillColor=none;top=0;left=0;bottom=0;right=0;align=left;spacingLeft=6;overflow=hidden;whiteSpace=wrap;html=1;" vertex="1" parent="lNLqZQGqbrdsQ3avqAJ8-29">
          <mxGeometry x="60" width="300" height="50" as="geometry">
            <mxRectangle width="300" height="50" as="alternateBounds" />
          </mxGeometry>
        </mxCell>
        <mxCell id="lNLqZQGqbrdsQ3avqAJ8-26" style="shape=tableRow;horizontal=0;startSize=0;swimlaneHead=0;swimlaneBody=0;fillColor=none;collapsible=0;dropTarget=0;points=[[0,0.5],[1,0.5]];portConstraint=eastwest;top=0;left=0;right=0;bottom=0;" vertex="1" parent="lNLqZQGqbrdsQ3avqAJ8-1">
          <mxGeometry y="360" width="360" height="50" as="geometry" />
        </mxCell>
        <mxCell id="lNLqZQGqbrdsQ3avqAJ8-27" value="FK_PS" style="shape=partialRectangle;connectable=0;fillColor=none;top=0;left=0;bottom=0;right=0;editable=1;overflow=hidden;whiteSpace=wrap;html=1;" vertex="1" parent="lNLqZQGqbrdsQ3avqAJ8-26">
          <mxGeometry width="60" height="50" as="geometry">
            <mxRectangle width="60" height="50" as="alternateBounds" />
          </mxGeometry>
        </mxCell>
        <mxCell id="lNLqZQGqbrdsQ3avqAJ8-28" value="Pages" style="shape=partialRectangle;connectable=0;fillColor=none;top=0;left=0;bottom=0;right=0;align=left;spacingLeft=6;overflow=hidden;whiteSpace=wrap;html=1;" vertex="1" parent="lNLqZQGqbrdsQ3avqAJ8-26">
          <mxGeometry x="60" width="300" height="50" as="geometry">
            <mxRectangle width="300" height="50" as="alternateBounds" />
          </mxGeometry>
        </mxCell>
        <mxCell id="lNLqZQGqbrdsQ3avqAJ8-60" value="Tavola di Ritratti che sono nominati" style="shape=table;startSize=30;container=1;collapsible=1;childLayout=tableLayout;fixedRows=1;rowLines=0;fontStyle=1;align=center;resizeLast=1;html=1;" vertex="1" parent="lNLqZQGqbrdsQ3avqAJ8-221">
          <mxGeometry x="2200" y="100" width="360" height="240" as="geometry" />
        </mxCell>
        <mxCell id="lNLqZQGqbrdsQ3avqAJ8-61" value="" style="shape=tableRow;horizontal=0;startSize=0;swimlaneHead=0;swimlaneBody=0;fillColor=none;collapsible=0;dropTarget=0;points=[[0,0.5],[1,0.5]];portConstraint=eastwest;top=0;left=0;right=0;bottom=1;" vertex="1" parent="lNLqZQGqbrdsQ3avqAJ8-60">
          <mxGeometry y="30" width="360" height="30" as="geometry" />
        </mxCell>
        <mxCell id="lNLqZQGqbrdsQ3avqAJ8-62" value="PK" style="shape=partialRectangle;connectable=0;fillColor=none;top=0;left=0;bottom=0;right=0;fontStyle=1;overflow=hidden;whiteSpace=wrap;html=1;" vertex="1" parent="lNLqZQGqbrdsQ3avqAJ8-61">
          <mxGeometry width="60" height="30" as="geometry">
            <mxRectangle width="60" height="30" as="alternateBounds" />
          </mxGeometry>
        </mxCell>
        <mxCell id="lNLqZQGqbrdsQ3avqAJ8-63" value="R" style="shape=partialRectangle;connectable=0;fillColor=none;top=0;left=0;bottom=0;right=0;align=left;spacingLeft=6;fontStyle=5;overflow=hidden;whiteSpace=wrap;html=1;" vertex="1" parent="lNLqZQGqbrdsQ3avqAJ8-61">
          <mxGeometry x="60" width="300" height="30" as="geometry">
            <mxRectangle width="300" height="30" as="alternateBounds" />
          </mxGeometry>
        </mxCell>
        <mxCell id="lNLqZQGqbrdsQ3avqAJ8-64" value="" style="shape=tableRow;horizontal=0;startSize=0;swimlaneHead=0;swimlaneBody=0;fillColor=none;collapsible=0;dropTarget=0;points=[[0,0.5],[1,0.5]];portConstraint=eastwest;top=0;left=0;right=0;bottom=0;" vertex="1" parent="lNLqZQGqbrdsQ3avqAJ8-60">
          <mxGeometry y="60" width="360" height="30" as="geometry" />
        </mxCell>
        <mxCell id="lNLqZQGqbrdsQ3avqAJ8-65" value="" style="shape=partialRectangle;connectable=0;fillColor=none;top=0;left=0;bottom=0;right=0;editable=1;overflow=hidden;whiteSpace=wrap;html=1;" vertex="1" parent="lNLqZQGqbrdsQ3avqAJ8-64">
          <mxGeometry width="60" height="30" as="geometry">
            <mxRectangle width="60" height="30" as="alternateBounds" />
          </mxGeometry>
        </mxCell>
        <mxCell id="lNLqZQGqbrdsQ3avqAJ8-66" value="Nom/Name" style="shape=partialRectangle;connectable=0;fillColor=none;top=0;left=0;bottom=0;right=0;align=left;spacingLeft=6;overflow=hidden;whiteSpace=wrap;html=1;" vertex="1" parent="lNLqZQGqbrdsQ3avqAJ8-64">
          <mxGeometry x="60" width="300" height="30" as="geometry">
            <mxRectangle width="300" height="30" as="alternateBounds" />
          </mxGeometry>
        </mxCell>
        <mxCell id="lNLqZQGqbrdsQ3avqAJ8-79" style="shape=tableRow;horizontal=0;startSize=0;swimlaneHead=0;swimlaneBody=0;fillColor=none;collapsible=0;dropTarget=0;points=[[0,0.5],[1,0.5]];portConstraint=eastwest;top=0;left=0;right=0;bottom=0;" vertex="1" parent="lNLqZQGqbrdsQ3avqAJ8-60">
          <mxGeometry y="90" width="360" height="50" as="geometry" />
        </mxCell>
        <mxCell id="lNLqZQGqbrdsQ3avqAJ8-80" value="FK_S" style="shape=partialRectangle;connectable=0;fillColor=none;top=0;left=0;bottom=0;right=0;editable=1;overflow=hidden;whiteSpace=wrap;html=1;" vertex="1" parent="lNLqZQGqbrdsQ3avqAJ8-79">
          <mxGeometry width="60" height="50" as="geometry">
            <mxRectangle width="60" height="50" as="alternateBounds" />
          </mxGeometry>
        </mxCell>
        <mxCell id="lNLqZQGqbrdsQ3avqAJ8-81" value="Section" style="shape=partialRectangle;connectable=0;fillColor=none;top=0;left=0;bottom=0;right=0;align=left;spacingLeft=6;overflow=hidden;whiteSpace=wrap;html=1;" vertex="1" parent="lNLqZQGqbrdsQ3avqAJ8-79">
          <mxGeometry x="60" width="300" height="50" as="geometry">
            <mxRectangle width="300" height="50" as="alternateBounds" />
          </mxGeometry>
        </mxCell>
        <mxCell id="lNLqZQGqbrdsQ3avqAJ8-82" style="shape=tableRow;horizontal=0;startSize=0;swimlaneHead=0;swimlaneBody=0;fillColor=none;collapsible=0;dropTarget=0;points=[[0,0.5],[1,0.5]];portConstraint=eastwest;top=0;left=0;right=0;bottom=0;" vertex="1" parent="lNLqZQGqbrdsQ3avqAJ8-60">
          <mxGeometry y="140" width="360" height="50" as="geometry" />
        </mxCell>
        <mxCell id="lNLqZQGqbrdsQ3avqAJ8-83" value="FK_AV" style="shape=partialRectangle;connectable=0;fillColor=none;top=0;left=0;bottom=0;right=0;editable=1;overflow=hidden;whiteSpace=wrap;html=1;" vertex="1" parent="lNLqZQGqbrdsQ3avqAJ8-82">
          <mxGeometry width="60" height="50" as="geometry">
            <mxRectangle width="60" height="50" as="alternateBounds" />
          </mxGeometry>
        </mxCell>
        <mxCell id="lNLqZQGqbrdsQ3avqAJ8-84" value="Vita" style="shape=partialRectangle;connectable=0;fillColor=none;top=0;left=0;bottom=0;right=0;align=left;spacingLeft=6;overflow=hidden;whiteSpace=wrap;html=1;" vertex="1" parent="lNLqZQGqbrdsQ3avqAJ8-82">
          <mxGeometry x="60" width="300" height="50" as="geometry">
            <mxRectangle width="300" height="50" as="alternateBounds" />
          </mxGeometry>
        </mxCell>
        <mxCell id="lNLqZQGqbrdsQ3avqAJ8-85" style="shape=tableRow;horizontal=0;startSize=0;swimlaneHead=0;swimlaneBody=0;fillColor=none;collapsible=0;dropTarget=0;points=[[0,0.5],[1,0.5]];portConstraint=eastwest;top=0;left=0;right=0;bottom=0;" vertex="1" parent="lNLqZQGqbrdsQ3avqAJ8-60">
          <mxGeometry y="190" width="360" height="50" as="geometry" />
        </mxCell>
        <mxCell id="lNLqZQGqbrdsQ3avqAJ8-86" value="FK_PS" style="shape=partialRectangle;connectable=0;fillColor=none;top=0;left=0;bottom=0;right=0;editable=1;overflow=hidden;whiteSpace=wrap;html=1;" vertex="1" parent="lNLqZQGqbrdsQ3avqAJ8-85">
          <mxGeometry width="60" height="50" as="geometry">
            <mxRectangle width="60" height="50" as="alternateBounds" />
          </mxGeometry>
        </mxCell>
        <mxCell id="lNLqZQGqbrdsQ3avqAJ8-87" value="Pages" style="shape=partialRectangle;connectable=0;fillColor=none;top=0;left=0;bottom=0;right=0;align=left;spacingLeft=6;overflow=hidden;whiteSpace=wrap;html=1;" vertex="1" parent="lNLqZQGqbrdsQ3avqAJ8-85">
          <mxGeometry x="60" width="300" height="50" as="geometry">
            <mxRectangle width="300" height="50" as="alternateBounds" />
          </mxGeometry>
        </mxCell>
        <mxCell id="lNLqZQGqbrdsQ3avqAJ8-32" value="Tavola delle Vite de gli Artefici" style="shape=table;startSize=30;container=1;collapsible=1;childLayout=tableLayout;fixedRows=1;rowLines=0;fontStyle=1;align=center;resizeLast=1;html=1;" vertex="1" parent="lNLqZQGqbrdsQ3avqAJ8-221">
          <mxGeometry x="980" y="100" width="360" height="360" as="geometry" />
        </mxCell>
        <mxCell id="lNLqZQGqbrdsQ3avqAJ8-33" value="" style="shape=tableRow;horizontal=0;startSize=0;swimlaneHead=0;swimlaneBody=0;fillColor=none;collapsible=0;dropTarget=0;points=[[0,0.5],[1,0.5]];portConstraint=eastwest;top=0;left=0;right=0;bottom=1;" vertex="1" parent="lNLqZQGqbrdsQ3avqAJ8-32">
          <mxGeometry y="30" width="360" height="30" as="geometry" />
        </mxCell>
        <mxCell id="lNLqZQGqbrdsQ3avqAJ8-34" value="PK" style="shape=partialRectangle;connectable=0;fillColor=none;top=0;left=0;bottom=0;right=0;fontStyle=1;overflow=hidden;whiteSpace=wrap;html=1;" vertex="1" parent="lNLqZQGqbrdsQ3avqAJ8-33">
          <mxGeometry width="60" height="30" as="geometry">
            <mxRectangle width="60" height="30" as="alternateBounds" />
          </mxGeometry>
        </mxCell>
        <mxCell id="lNLqZQGqbrdsQ3avqAJ8-35" value="AV" style="shape=partialRectangle;connectable=0;fillColor=none;top=0;left=0;bottom=0;right=0;align=left;spacingLeft=6;fontStyle=5;overflow=hidden;whiteSpace=wrap;html=1;" vertex="1" parent="lNLqZQGqbrdsQ3avqAJ8-33">
          <mxGeometry x="60" width="300" height="30" as="geometry">
            <mxRectangle width="300" height="30" as="alternateBounds" />
          </mxGeometry>
        </mxCell>
        <mxCell id="lNLqZQGqbrdsQ3avqAJ8-36" value="" style="shape=tableRow;horizontal=0;startSize=0;swimlaneHead=0;swimlaneBody=0;fillColor=none;collapsible=0;dropTarget=0;points=[[0,0.5],[1,0.5]];portConstraint=eastwest;top=0;left=0;right=0;bottom=0;" vertex="1" parent="lNLqZQGqbrdsQ3avqAJ8-32">
          <mxGeometry y="60" width="360" height="30" as="geometry" />
        </mxCell>
        <mxCell id="lNLqZQGqbrdsQ3avqAJ8-37" value="" style="shape=partialRectangle;connectable=0;fillColor=none;top=0;left=0;bottom=0;right=0;editable=1;overflow=hidden;whiteSpace=wrap;html=1;" vertex="1" parent="lNLqZQGqbrdsQ3avqAJ8-36">
          <mxGeometry width="60" height="30" as="geometry">
            <mxRectangle width="60" height="30" as="alternateBounds" />
          </mxGeometry>
        </mxCell>
        <mxCell id="lNLqZQGqbrdsQ3avqAJ8-38" value="Nom/Name" style="shape=partialRectangle;connectable=0;fillColor=none;top=0;left=0;bottom=0;right=0;align=left;spacingLeft=6;overflow=hidden;whiteSpace=wrap;html=1;" vertex="1" parent="lNLqZQGqbrdsQ3avqAJ8-36">
          <mxGeometry x="60" width="300" height="30" as="geometry">
            <mxRectangle width="300" height="30" as="alternateBounds" />
          </mxGeometry>
        </mxCell>
        <mxCell id="lNLqZQGqbrdsQ3avqAJ8-39" value="" style="shape=tableRow;horizontal=0;startSize=0;swimlaneHead=0;swimlaneBody=0;fillColor=none;collapsible=0;dropTarget=0;points=[[0,0.5],[1,0.5]];portConstraint=eastwest;top=0;left=0;right=0;bottom=0;" vertex="1" parent="lNLqZQGqbrdsQ3avqAJ8-32">
          <mxGeometry y="90" width="360" height="30" as="geometry" />
        </mxCell>
        <mxCell id="lNLqZQGqbrdsQ3avqAJ8-40" value="FK_P" style="shape=partialRectangle;connectable=0;fillColor=none;top=0;left=0;bottom=0;right=0;editable=1;overflow=hidden;whiteSpace=wrap;html=1;" vertex="1" parent="lNLqZQGqbrdsQ3avqAJ8-39">
          <mxGeometry width="60" height="30" as="geometry">
            <mxRectangle width="60" height="30" as="alternateBounds" />
          </mxGeometry>
        </mxCell>
        <mxCell id="lNLqZQGqbrdsQ3avqAJ8-41" value="Profession_1" style="shape=partialRectangle;connectable=0;fillColor=none;top=0;left=0;bottom=0;right=0;align=left;spacingLeft=6;overflow=hidden;whiteSpace=wrap;html=1;" vertex="1" parent="lNLqZQGqbrdsQ3avqAJ8-39">
          <mxGeometry x="60" width="300" height="30" as="geometry">
            <mxRectangle width="300" height="30" as="alternateBounds" />
          </mxGeometry>
        </mxCell>
        <mxCell id="lNLqZQGqbrdsQ3avqAJ8-42" value="" style="shape=tableRow;horizontal=0;startSize=0;swimlaneHead=0;swimlaneBody=0;fillColor=none;collapsible=0;dropTarget=0;points=[[0,0.5],[1,0.5]];portConstraint=eastwest;top=0;left=0;right=0;bottom=0;" vertex="1" parent="lNLqZQGqbrdsQ3avqAJ8-32">
          <mxGeometry y="120" width="360" height="40" as="geometry" />
        </mxCell>
        <mxCell id="lNLqZQGqbrdsQ3avqAJ8-43" value="FK_P" style="shape=partialRectangle;connectable=0;fillColor=none;top=0;left=0;bottom=0;right=0;editable=1;overflow=hidden;whiteSpace=wrap;html=1;" vertex="1" parent="lNLqZQGqbrdsQ3avqAJ8-42">
          <mxGeometry width="60" height="40" as="geometry">
            <mxRectangle width="60" height="40" as="alternateBounds" />
          </mxGeometry>
        </mxCell>
        <mxCell id="lNLqZQGqbrdsQ3avqAJ8-44" value="Profession_2" style="shape=partialRectangle;connectable=0;fillColor=none;top=0;left=0;bottom=0;right=0;align=left;spacingLeft=6;overflow=hidden;whiteSpace=wrap;html=1;" vertex="1" parent="lNLqZQGqbrdsQ3avqAJ8-42">
          <mxGeometry x="60" width="300" height="40" as="geometry">
            <mxRectangle width="300" height="40" as="alternateBounds" />
          </mxGeometry>
        </mxCell>
        <mxCell id="lNLqZQGqbrdsQ3avqAJ8-45" style="shape=tableRow;horizontal=0;startSize=0;swimlaneHead=0;swimlaneBody=0;fillColor=none;collapsible=0;dropTarget=0;points=[[0,0.5],[1,0.5]];portConstraint=eastwest;top=0;left=0;right=0;bottom=0;" vertex="1" parent="lNLqZQGqbrdsQ3avqAJ8-32">
          <mxGeometry y="160" width="360" height="50" as="geometry" />
        </mxCell>
        <mxCell id="lNLqZQGqbrdsQ3avqAJ8-46" value="FK_P" style="shape=partialRectangle;connectable=0;fillColor=none;top=0;left=0;bottom=0;right=0;editable=1;overflow=hidden;whiteSpace=wrap;html=1;" vertex="1" parent="lNLqZQGqbrdsQ3avqAJ8-45">
          <mxGeometry width="60" height="50" as="geometry">
            <mxRectangle width="60" height="50" as="alternateBounds" />
          </mxGeometry>
        </mxCell>
        <mxCell id="lNLqZQGqbrdsQ3avqAJ8-47" value="Profession_3" style="shape=partialRectangle;connectable=0;fillColor=none;top=0;left=0;bottom=0;right=0;align=left;spacingLeft=6;overflow=hidden;whiteSpace=wrap;html=1;" vertex="1" parent="lNLqZQGqbrdsQ3avqAJ8-45">
          <mxGeometry x="60" width="300" height="50" as="geometry">
            <mxRectangle width="300" height="50" as="alternateBounds" />
          </mxGeometry>
        </mxCell>
        <mxCell id="lNLqZQGqbrdsQ3avqAJ8-48" style="shape=tableRow;horizontal=0;startSize=0;swimlaneHead=0;swimlaneBody=0;fillColor=none;collapsible=0;dropTarget=0;points=[[0,0.5],[1,0.5]];portConstraint=eastwest;top=0;left=0;right=0;bottom=0;" vertex="1" parent="lNLqZQGqbrdsQ3avqAJ8-32">
          <mxGeometry y="210" width="360" height="50" as="geometry" />
        </mxCell>
        <mxCell id="lNLqZQGqbrdsQ3avqAJ8-49" value="FK_R" style="shape=partialRectangle;connectable=0;fillColor=none;top=0;left=0;bottom=0;right=0;editable=1;overflow=hidden;whiteSpace=wrap;html=1;" vertex="1" parent="lNLqZQGqbrdsQ3avqAJ8-48">
          <mxGeometry width="60" height="50" as="geometry">
            <mxRectangle width="60" height="50" as="alternateBounds" />
          </mxGeometry>
        </mxCell>
        <mxCell id="lNLqZQGqbrdsQ3avqAJ8-50" value="Ritratti" style="shape=partialRectangle;connectable=0;fillColor=none;top=0;left=0;bottom=0;right=0;align=left;spacingLeft=6;overflow=hidden;whiteSpace=wrap;html=1;" vertex="1" parent="lNLqZQGqbrdsQ3avqAJ8-48">
          <mxGeometry x="60" width="300" height="50" as="geometry">
            <mxRectangle width="300" height="50" as="alternateBounds" />
          </mxGeometry>
        </mxCell>
        <mxCell id="lNLqZQGqbrdsQ3avqAJ8-51" style="shape=tableRow;horizontal=0;startSize=0;swimlaneHead=0;swimlaneBody=0;fillColor=none;collapsible=0;dropTarget=0;points=[[0,0.5],[1,0.5]];portConstraint=eastwest;top=0;left=0;right=0;bottom=0;" vertex="1" parent="lNLqZQGqbrdsQ3avqAJ8-32">
          <mxGeometry y="260" width="360" height="50" as="geometry" />
        </mxCell>
        <mxCell id="lNLqZQGqbrdsQ3avqAJ8-52" value="FK_S" style="shape=partialRectangle;connectable=0;fillColor=none;top=0;left=0;bottom=0;right=0;editable=1;overflow=hidden;whiteSpace=wrap;html=1;" vertex="1" parent="lNLqZQGqbrdsQ3avqAJ8-51">
          <mxGeometry width="60" height="50" as="geometry">
            <mxRectangle width="60" height="50" as="alternateBounds" />
          </mxGeometry>
        </mxCell>
        <mxCell id="lNLqZQGqbrdsQ3avqAJ8-53" value="Section" style="shape=partialRectangle;connectable=0;fillColor=none;top=0;left=0;bottom=0;right=0;align=left;spacingLeft=6;overflow=hidden;whiteSpace=wrap;html=1;" vertex="1" parent="lNLqZQGqbrdsQ3avqAJ8-51">
          <mxGeometry x="60" width="300" height="50" as="geometry">
            <mxRectangle width="300" height="50" as="alternateBounds" />
          </mxGeometry>
        </mxCell>
        <mxCell id="lNLqZQGqbrdsQ3avqAJ8-54" style="shape=tableRow;horizontal=0;startSize=0;swimlaneHead=0;swimlaneBody=0;fillColor=none;collapsible=0;dropTarget=0;points=[[0,0.5],[1,0.5]];portConstraint=eastwest;top=0;left=0;right=0;bottom=0;" vertex="1" parent="lNLqZQGqbrdsQ3avqAJ8-32">
          <mxGeometry y="310" width="360" height="50" as="geometry" />
        </mxCell>
        <mxCell id="lNLqZQGqbrdsQ3avqAJ8-55" value="FK_PS" style="shape=partialRectangle;connectable=0;fillColor=none;top=0;left=0;bottom=0;right=0;editable=1;overflow=hidden;whiteSpace=wrap;html=1;" vertex="1" parent="lNLqZQGqbrdsQ3avqAJ8-54">
          <mxGeometry width="60" height="50" as="geometry">
            <mxRectangle width="60" height="50" as="alternateBounds" />
          </mxGeometry>
        </mxCell>
        <mxCell id="lNLqZQGqbrdsQ3avqAJ8-56" value="Page(s)" style="shape=partialRectangle;connectable=0;fillColor=none;top=0;left=0;bottom=0;right=0;align=left;spacingLeft=6;overflow=hidden;whiteSpace=wrap;html=1;" vertex="1" parent="lNLqZQGqbrdsQ3avqAJ8-54">
          <mxGeometry x="60" width="300" height="50" as="geometry">
            <mxRectangle width="300" height="50" as="alternateBounds" />
          </mxGeometry>
        </mxCell>
        <mxCell id="lNLqZQGqbrdsQ3avqAJ8-88" value="Indice copioso delle cose più notabili" style="shape=table;startSize=30;container=1;collapsible=1;childLayout=tableLayout;fixedRows=1;rowLines=0;fontStyle=1;align=center;resizeLast=1;html=1;" vertex="1" parent="lNLqZQGqbrdsQ3avqAJ8-221">
          <mxGeometry x="1600" y="100" width="360" height="340" as="geometry" />
        </mxCell>
        <mxCell id="lNLqZQGqbrdsQ3avqAJ8-89" value="" style="shape=tableRow;horizontal=0;startSize=0;swimlaneHead=0;swimlaneBody=0;fillColor=none;collapsible=0;dropTarget=0;points=[[0,0.5],[1,0.5]];portConstraint=eastwest;top=0;left=0;right=0;bottom=1;" vertex="1" parent="lNLqZQGqbrdsQ3avqAJ8-88">
          <mxGeometry y="30" width="360" height="30" as="geometry" />
        </mxCell>
        <mxCell id="lNLqZQGqbrdsQ3avqAJ8-90" value="PK" style="shape=partialRectangle;connectable=0;fillColor=none;top=0;left=0;bottom=0;right=0;fontStyle=1;overflow=hidden;whiteSpace=wrap;html=1;" vertex="1" parent="lNLqZQGqbrdsQ3avqAJ8-89">
          <mxGeometry width="60" height="30" as="geometry">
            <mxRectangle width="60" height="30" as="alternateBounds" />
          </mxGeometry>
        </mxCell>
        <mxCell id="lNLqZQGqbrdsQ3avqAJ8-91" value="IND" style="shape=partialRectangle;connectable=0;fillColor=none;top=0;left=0;bottom=0;right=0;align=left;spacingLeft=6;fontStyle=5;overflow=hidden;whiteSpace=wrap;html=1;" vertex="1" parent="lNLqZQGqbrdsQ3avqAJ8-89">
          <mxGeometry x="60" width="300" height="30" as="geometry">
            <mxRectangle width="300" height="30" as="alternateBounds" />
          </mxGeometry>
        </mxCell>
        <mxCell id="lNLqZQGqbrdsQ3avqAJ8-92" value="" style="shape=tableRow;horizontal=0;startSize=0;swimlaneHead=0;swimlaneBody=0;fillColor=none;collapsible=0;dropTarget=0;points=[[0,0.5],[1,0.5]];portConstraint=eastwest;top=0;left=0;right=0;bottom=0;" vertex="1" parent="lNLqZQGqbrdsQ3avqAJ8-88">
          <mxGeometry y="60" width="360" height="40" as="geometry" />
        </mxCell>
        <mxCell id="lNLqZQGqbrdsQ3avqAJ8-93" value="" style="shape=partialRectangle;connectable=0;fillColor=none;top=0;left=0;bottom=0;right=0;editable=1;overflow=hidden;whiteSpace=wrap;html=1;" vertex="1" parent="lNLqZQGqbrdsQ3avqAJ8-92">
          <mxGeometry width="60" height="40" as="geometry">
            <mxRectangle width="60" height="40" as="alternateBounds" />
          </mxGeometry>
        </mxCell>
        <mxCell id="lNLqZQGqbrdsQ3avqAJ8-94" value="Nom/Name" style="shape=partialRectangle;connectable=0;fillColor=none;top=0;left=0;bottom=0;right=0;align=left;spacingLeft=6;overflow=hidden;whiteSpace=wrap;html=1;" vertex="1" parent="lNLqZQGqbrdsQ3avqAJ8-92">
          <mxGeometry x="60" width="300" height="40" as="geometry">
            <mxRectangle width="300" height="40" as="alternateBounds" />
          </mxGeometry>
        </mxCell>
        <mxCell id="lNLqZQGqbrdsQ3avqAJ8-95" value="" style="shape=tableRow;horizontal=0;startSize=0;swimlaneHead=0;swimlaneBody=0;fillColor=none;collapsible=0;dropTarget=0;points=[[0,0.5],[1,0.5]];portConstraint=eastwest;top=0;left=0;right=0;bottom=0;" vertex="1" parent="lNLqZQGqbrdsQ3avqAJ8-88">
          <mxGeometry y="100" width="360" height="40" as="geometry" />
        </mxCell>
        <mxCell id="lNLqZQGqbrdsQ3avqAJ8-96" value="" style="shape=partialRectangle;connectable=0;fillColor=none;top=0;left=0;bottom=0;right=0;editable=1;overflow=hidden;whiteSpace=wrap;html=1;" vertex="1" parent="lNLqZQGqbrdsQ3avqAJ8-95">
          <mxGeometry width="60" height="40" as="geometry">
            <mxRectangle width="60" height="40" as="alternateBounds" />
          </mxGeometry>
        </mxCell>
        <mxCell id="lNLqZQGqbrdsQ3avqAJ8-97" value="Description" style="shape=partialRectangle;connectable=0;fillColor=none;top=0;left=0;bottom=0;right=0;align=left;spacingLeft=6;overflow=hidden;whiteSpace=wrap;html=1;" vertex="1" parent="lNLqZQGqbrdsQ3avqAJ8-95">
          <mxGeometry x="60" width="300" height="40" as="geometry">
            <mxRectangle width="300" height="40" as="alternateBounds" />
          </mxGeometry>
        </mxCell>
        <mxCell id="lNLqZQGqbrdsQ3avqAJ8-98" value="" style="shape=tableRow;horizontal=0;startSize=0;swimlaneHead=0;swimlaneBody=0;fillColor=none;collapsible=0;dropTarget=0;points=[[0,0.5],[1,0.5]];portConstraint=eastwest;top=0;left=0;right=0;bottom=0;" vertex="1" parent="lNLqZQGqbrdsQ3avqAJ8-88">
          <mxGeometry y="140" width="360" height="40" as="geometry" />
        </mxCell>
        <mxCell id="lNLqZQGqbrdsQ3avqAJ8-99" value="FK_P" style="shape=partialRectangle;connectable=0;fillColor=none;top=0;left=0;bottom=0;right=0;editable=1;overflow=hidden;whiteSpace=wrap;html=1;" vertex="1" parent="lNLqZQGqbrdsQ3avqAJ8-98">
          <mxGeometry width="60" height="40" as="geometry">
            <mxRectangle width="60" height="40" as="alternateBounds" />
          </mxGeometry>
        </mxCell>
        <mxCell id="lNLqZQGqbrdsQ3avqAJ8-100" value="Profession" style="shape=partialRectangle;connectable=0;fillColor=none;top=0;left=0;bottom=0;right=0;align=left;spacingLeft=6;overflow=hidden;whiteSpace=wrap;html=1;" vertex="1" parent="lNLqZQGqbrdsQ3avqAJ8-98">
          <mxGeometry x="60" width="300" height="40" as="geometry">
            <mxRectangle width="300" height="40" as="alternateBounds" />
          </mxGeometry>
        </mxCell>
        <mxCell id="lNLqZQGqbrdsQ3avqAJ8-104" style="shape=tableRow;horizontal=0;startSize=0;swimlaneHead=0;swimlaneBody=0;fillColor=none;collapsible=0;dropTarget=0;points=[[0,0.5],[1,0.5]];portConstraint=eastwest;top=0;left=0;right=0;bottom=0;" vertex="1" parent="lNLqZQGqbrdsQ3avqAJ8-88">
          <mxGeometry y="180" width="360" height="40" as="geometry" />
        </mxCell>
        <mxCell id="lNLqZQGqbrdsQ3avqAJ8-105" value="FK_R" style="shape=partialRectangle;connectable=0;fillColor=none;top=0;left=0;bottom=0;right=0;editable=1;overflow=hidden;whiteSpace=wrap;html=1;" vertex="1" parent="lNLqZQGqbrdsQ3avqAJ8-104">
          <mxGeometry width="60" height="40" as="geometry">
            <mxRectangle width="60" height="40" as="alternateBounds" />
          </mxGeometry>
        </mxCell>
        <mxCell id="lNLqZQGqbrdsQ3avqAJ8-106" value="Ritratti" style="shape=partialRectangle;connectable=0;fillColor=none;top=0;left=0;bottom=0;right=0;align=left;spacingLeft=6;overflow=hidden;whiteSpace=wrap;html=1;" vertex="1" parent="lNLqZQGqbrdsQ3avqAJ8-104">
          <mxGeometry x="60" width="300" height="40" as="geometry">
            <mxRectangle width="300" height="40" as="alternateBounds" />
          </mxGeometry>
        </mxCell>
        <mxCell id="lNLqZQGqbrdsQ3avqAJ8-107" style="shape=tableRow;horizontal=0;startSize=0;swimlaneHead=0;swimlaneBody=0;fillColor=none;collapsible=0;dropTarget=0;points=[[0,0.5],[1,0.5]];portConstraint=eastwest;top=0;left=0;right=0;bottom=0;" vertex="1" parent="lNLqZQGqbrdsQ3avqAJ8-88">
          <mxGeometry y="220" width="360" height="40" as="geometry" />
        </mxCell>
        <mxCell id="lNLqZQGqbrdsQ3avqAJ8-108" value="FK_S" style="shape=partialRectangle;connectable=0;fillColor=none;top=0;left=0;bottom=0;right=0;editable=1;overflow=hidden;whiteSpace=wrap;html=1;" vertex="1" parent="lNLqZQGqbrdsQ3avqAJ8-107">
          <mxGeometry width="60" height="40" as="geometry">
            <mxRectangle width="60" height="40" as="alternateBounds" />
          </mxGeometry>
        </mxCell>
        <mxCell id="lNLqZQGqbrdsQ3avqAJ8-109" value="Section" style="shape=partialRectangle;connectable=0;fillColor=none;top=0;left=0;bottom=0;right=0;align=left;spacingLeft=6;overflow=hidden;whiteSpace=wrap;html=1;" vertex="1" parent="lNLqZQGqbrdsQ3avqAJ8-107">
          <mxGeometry x="60" width="300" height="40" as="geometry">
            <mxRectangle width="300" height="40" as="alternateBounds" />
          </mxGeometry>
        </mxCell>
        <mxCell id="lNLqZQGqbrdsQ3avqAJ8-110" style="shape=tableRow;horizontal=0;startSize=0;swimlaneHead=0;swimlaneBody=0;fillColor=none;collapsible=0;dropTarget=0;points=[[0,0.5],[1,0.5]];portConstraint=eastwest;top=0;left=0;right=0;bottom=0;" vertex="1" parent="lNLqZQGqbrdsQ3avqAJ8-88">
          <mxGeometry y="260" width="360" height="40" as="geometry" />
        </mxCell>
        <mxCell id="lNLqZQGqbrdsQ3avqAJ8-111" value="FK_PS" style="shape=partialRectangle;connectable=0;fillColor=none;top=0;left=0;bottom=0;right=0;editable=1;overflow=hidden;whiteSpace=wrap;html=1;" vertex="1" parent="lNLqZQGqbrdsQ3avqAJ8-110">
          <mxGeometry width="60" height="40" as="geometry">
            <mxRectangle width="60" height="40" as="alternateBounds" />
          </mxGeometry>
        </mxCell>
        <mxCell id="lNLqZQGqbrdsQ3avqAJ8-112" value="Page" style="shape=partialRectangle;connectable=0;fillColor=none;top=0;left=0;bottom=0;right=0;align=left;spacingLeft=6;overflow=hidden;whiteSpace=wrap;html=1;" vertex="1" parent="lNLqZQGqbrdsQ3avqAJ8-110">
          <mxGeometry x="60" width="300" height="40" as="geometry">
            <mxRectangle width="300" height="40" as="alternateBounds" />
          </mxGeometry>
        </mxCell>
        <mxCell id="lNLqZQGqbrdsQ3avqAJ8-113" style="shape=tableRow;horizontal=0;startSize=0;swimlaneHead=0;swimlaneBody=0;fillColor=none;collapsible=0;dropTarget=0;points=[[0,0.5],[1,0.5]];portConstraint=eastwest;top=0;left=0;right=0;bottom=0;" vertex="1" parent="lNLqZQGqbrdsQ3avqAJ8-88">
          <mxGeometry y="300" width="360" height="40" as="geometry" />
        </mxCell>
        <mxCell id="lNLqZQGqbrdsQ3avqAJ8-114" value="FK_AV" style="shape=partialRectangle;connectable=0;fillColor=none;top=0;left=0;bottom=0;right=0;editable=1;overflow=hidden;whiteSpace=wrap;html=1;" vertex="1" parent="lNLqZQGqbrdsQ3avqAJ8-113">
          <mxGeometry width="60" height="40" as="geometry">
            <mxRectangle width="60" height="40" as="alternateBounds" />
          </mxGeometry>
        </mxCell>
        <mxCell id="lNLqZQGqbrdsQ3avqAJ8-115" value="Vita" style="shape=partialRectangle;connectable=0;fillColor=none;top=0;left=0;bottom=0;right=0;align=left;spacingLeft=6;overflow=hidden;whiteSpace=wrap;html=1;" vertex="1" parent="lNLqZQGqbrdsQ3avqAJ8-113">
          <mxGeometry x="60" width="300" height="40" as="geometry">
            <mxRectangle width="300" height="40" as="alternateBounds" />
          </mxGeometry>
        </mxCell>
        <mxCell id="lNLqZQGqbrdsQ3avqAJ8-116" style="edgeStyle=orthogonalEdgeStyle;rounded=0;orthogonalLoop=1;jettySize=auto;html=1;exitX=0;exitY=0.5;exitDx=0;exitDy=0;entryX=0;entryY=0.5;entryDx=0;entryDy=0;startArrow=classic;startFill=0;endArrow=none;" edge="1" parent="lNLqZQGqbrdsQ3avqAJ8-221" source="lNLqZQGqbrdsQ3avqAJ8-48" target="lNLqZQGqbrdsQ3avqAJ8-61">
          <mxGeometry relative="1" as="geometry">
            <Array as="points">
              <mxPoint x="930" y="335" />
              <mxPoint x="930" />
              <mxPoint x="2160" />
              <mxPoint x="2160" y="145" />
            </Array>
          </mxGeometry>
        </mxCell>
        <mxCell id="lNLqZQGqbrdsQ3avqAJ8-240" value="Has a portrait cited" style="edgeLabel;html=1;align=center;verticalAlign=middle;resizable=0;points=[];" vertex="1" connectable="0" parent="lNLqZQGqbrdsQ3avqAJ8-116">
          <mxGeometry x="0.0787" y="1" relative="1" as="geometry">
            <mxPoint as="offset" />
          </mxGeometry>
        </mxCell>
        <mxCell id="lNLqZQGqbrdsQ3avqAJ8-117" style="edgeStyle=orthogonalEdgeStyle;rounded=0;orthogonalLoop=1;jettySize=auto;html=1;exitX=0;exitY=0.5;exitDx=0;exitDy=0;entryX=0;entryY=0.5;entryDx=0;entryDy=0;" edge="1" parent="lNLqZQGqbrdsQ3avqAJ8-221" source="lNLqZQGqbrdsQ3avqAJ8-33" target="lNLqZQGqbrdsQ3avqAJ8-29">
          <mxGeometry relative="1" as="geometry">
            <Array as="points">
              <mxPoint x="890" y="145" />
              <mxPoint x="890" y="20" />
              <mxPoint x="230" y="20" />
              <mxPoint x="230" y="435" />
            </Array>
          </mxGeometry>
        </mxCell>
        <mxCell id="lNLqZQGqbrdsQ3avqAJ8-118" style="edgeStyle=orthogonalEdgeStyle;rounded=0;orthogonalLoop=1;jettySize=auto;html=1;exitX=0;exitY=0.5;exitDx=0;exitDy=0;entryX=0;entryY=0.5;entryDx=0;entryDy=0;" edge="1" parent="lNLqZQGqbrdsQ3avqAJ8-221" source="lNLqZQGqbrdsQ3avqAJ8-33" target="lNLqZQGqbrdsQ3avqAJ8-113">
          <mxGeometry relative="1" as="geometry">
            <Array as="points">
              <mxPoint x="960" y="145" />
              <mxPoint x="960" y="590" />
              <mxPoint x="1530" y="590" />
              <mxPoint x="1530" y="420" />
            </Array>
          </mxGeometry>
        </mxCell>
        <mxCell id="lNLqZQGqbrdsQ3avqAJ8-230" value="Cited in" style="edgeLabel;html=1;align=center;verticalAlign=middle;resizable=0;points=[];" vertex="1" connectable="0" parent="lNLqZQGqbrdsQ3avqAJ8-118">
          <mxGeometry x="0.2043" y="4" relative="1" as="geometry">
            <mxPoint as="offset" />
          </mxGeometry>
        </mxCell>
        <mxCell id="lNLqZQGqbrdsQ3avqAJ8-119" style="edgeStyle=orthogonalEdgeStyle;rounded=0;orthogonalLoop=1;jettySize=auto;html=1;exitX=0;exitY=0.5;exitDx=0;exitDy=0;entryX=0;entryY=0.5;entryDx=0;entryDy=0;" edge="1" parent="lNLqZQGqbrdsQ3avqAJ8-221" source="lNLqZQGqbrdsQ3avqAJ8-33" target="lNLqZQGqbrdsQ3avqAJ8-82">
          <mxGeometry relative="1" as="geometry">
            <Array as="points">
              <mxPoint x="960" y="145" />
              <mxPoint x="960" y="50" />
              <mxPoint x="2090" y="50" />
              <mxPoint x="2090" y="265" />
            </Array>
          </mxGeometry>
        </mxCell>
        <mxCell id="lNLqZQGqbrdsQ3avqAJ8-226" value="Cited in" style="edgeLabel;html=1;align=center;verticalAlign=middle;resizable=0;points=[];" vertex="1" connectable="0" parent="lNLqZQGqbrdsQ3avqAJ8-119">
          <mxGeometry x="-0.1207" y="-2" relative="1" as="geometry">
            <mxPoint as="offset" />
          </mxGeometry>
        </mxCell>
        <mxCell id="lNLqZQGqbrdsQ3avqAJ8-120" style="edgeStyle=orthogonalEdgeStyle;rounded=0;orthogonalLoop=1;jettySize=auto;html=1;exitX=0;exitY=0.5;exitDx=0;exitDy=0;entryX=0;entryY=0.5;entryDx=0;entryDy=0;" edge="1" parent="lNLqZQGqbrdsQ3avqAJ8-221" source="lNLqZQGqbrdsQ3avqAJ8-61" target="lNLqZQGqbrdsQ3avqAJ8-104">
          <mxGeometry relative="1" as="geometry">
            <Array as="points">
              <mxPoint x="2130" y="145" />
              <mxPoint x="2130" y="80" />
              <mxPoint x="1580" y="80" />
              <mxPoint x="1580" y="300" />
            </Array>
          </mxGeometry>
        </mxCell>
        <mxCell id="lNLqZQGqbrdsQ3avqAJ8-241" value="Has a portrait cited" style="edgeLabel;html=1;align=center;verticalAlign=middle;resizable=0;points=[];" vertex="1" connectable="0" parent="lNLqZQGqbrdsQ3avqAJ8-120">
          <mxGeometry x="-0.3515" y="-3" relative="1" as="geometry">
            <mxPoint as="offset" />
          </mxGeometry>
        </mxCell>
        <mxCell id="lNLqZQGqbrdsQ3avqAJ8-121" value="Profession" style="shape=table;startSize=30;container=1;collapsible=1;childLayout=tableLayout;fixedRows=1;rowLines=0;fontStyle=1;align=center;resizeLast=1;html=1;" vertex="1" parent="lNLqZQGqbrdsQ3avqAJ8-221">
          <mxGeometry x="1470" y="940" width="180" height="90" as="geometry" />
        </mxCell>
        <mxCell id="lNLqZQGqbrdsQ3avqAJ8-122" value="" style="shape=tableRow;horizontal=0;startSize=0;swimlaneHead=0;swimlaneBody=0;fillColor=none;collapsible=0;dropTarget=0;points=[[0,0.5],[1,0.5]];portConstraint=eastwest;top=0;left=0;right=0;bottom=1;" vertex="1" parent="lNLqZQGqbrdsQ3avqAJ8-121">
          <mxGeometry y="30" width="180" height="30" as="geometry" />
        </mxCell>
        <mxCell id="lNLqZQGqbrdsQ3avqAJ8-123" value="PK" style="shape=partialRectangle;connectable=0;fillColor=none;top=0;left=0;bottom=0;right=0;fontStyle=1;overflow=hidden;whiteSpace=wrap;html=1;" vertex="1" parent="lNLqZQGqbrdsQ3avqAJ8-122">
          <mxGeometry width="30" height="30" as="geometry">
            <mxRectangle width="30" height="30" as="alternateBounds" />
          </mxGeometry>
        </mxCell>
        <mxCell id="lNLqZQGqbrdsQ3avqAJ8-124" value="P" style="shape=partialRectangle;connectable=0;fillColor=none;top=0;left=0;bottom=0;right=0;align=left;spacingLeft=6;fontStyle=5;overflow=hidden;whiteSpace=wrap;html=1;" vertex="1" parent="lNLqZQGqbrdsQ3avqAJ8-122">
          <mxGeometry x="30" width="150" height="30" as="geometry">
            <mxRectangle width="150" height="30" as="alternateBounds" />
          </mxGeometry>
        </mxCell>
        <mxCell id="lNLqZQGqbrdsQ3avqAJ8-125" value="" style="shape=tableRow;horizontal=0;startSize=0;swimlaneHead=0;swimlaneBody=0;fillColor=none;collapsible=0;dropTarget=0;points=[[0,0.5],[1,0.5]];portConstraint=eastwest;top=0;left=0;right=0;bottom=0;" vertex="1" parent="lNLqZQGqbrdsQ3avqAJ8-121">
          <mxGeometry y="60" width="180" height="30" as="geometry" />
        </mxCell>
        <mxCell id="lNLqZQGqbrdsQ3avqAJ8-126" value="" style="shape=partialRectangle;connectable=0;fillColor=none;top=0;left=0;bottom=0;right=0;editable=1;overflow=hidden;whiteSpace=wrap;html=1;" vertex="1" parent="lNLqZQGqbrdsQ3avqAJ8-125">
          <mxGeometry width="30" height="30" as="geometry">
            <mxRectangle width="30" height="30" as="alternateBounds" />
          </mxGeometry>
        </mxCell>
        <mxCell id="lNLqZQGqbrdsQ3avqAJ8-127" value="Nom/Name" style="shape=partialRectangle;connectable=0;fillColor=none;top=0;left=0;bottom=0;right=0;align=left;spacingLeft=6;overflow=hidden;whiteSpace=wrap;html=1;" vertex="1" parent="lNLqZQGqbrdsQ3avqAJ8-125">
          <mxGeometry x="30" width="150" height="30" as="geometry">
            <mxRectangle width="150" height="30" as="alternateBounds" />
          </mxGeometry>
        </mxCell>
        <mxCell id="lNLqZQGqbrdsQ3avqAJ8-134" value="Section" style="shape=table;startSize=30;container=1;collapsible=1;childLayout=tableLayout;fixedRows=1;rowLines=0;fontStyle=1;align=center;resizeLast=1;html=1;" vertex="1" parent="lNLqZQGqbrdsQ3avqAJ8-221">
          <mxGeometry x="1150" y="940" width="180" height="90" as="geometry" />
        </mxCell>
        <mxCell id="lNLqZQGqbrdsQ3avqAJ8-135" value="" style="shape=tableRow;horizontal=0;startSize=0;swimlaneHead=0;swimlaneBody=0;fillColor=none;collapsible=0;dropTarget=0;points=[[0,0.5],[1,0.5]];portConstraint=eastwest;top=0;left=0;right=0;bottom=1;" vertex="1" parent="lNLqZQGqbrdsQ3avqAJ8-134">
          <mxGeometry y="30" width="180" height="30" as="geometry" />
        </mxCell>
        <mxCell id="lNLqZQGqbrdsQ3avqAJ8-136" value="PK" style="shape=partialRectangle;connectable=0;fillColor=none;top=0;left=0;bottom=0;right=0;fontStyle=1;overflow=hidden;whiteSpace=wrap;html=1;" vertex="1" parent="lNLqZQGqbrdsQ3avqAJ8-135">
          <mxGeometry width="30" height="30" as="geometry">
            <mxRectangle width="30" height="30" as="alternateBounds" />
          </mxGeometry>
        </mxCell>
        <mxCell id="lNLqZQGqbrdsQ3avqAJ8-137" value="S" style="shape=partialRectangle;connectable=0;fillColor=none;top=0;left=0;bottom=0;right=0;align=left;spacingLeft=6;fontStyle=5;overflow=hidden;whiteSpace=wrap;html=1;" vertex="1" parent="lNLqZQGqbrdsQ3avqAJ8-135">
          <mxGeometry x="30" width="150" height="30" as="geometry">
            <mxRectangle width="150" height="30" as="alternateBounds" />
          </mxGeometry>
        </mxCell>
        <mxCell id="lNLqZQGqbrdsQ3avqAJ8-138" value="" style="shape=tableRow;horizontal=0;startSize=0;swimlaneHead=0;swimlaneBody=0;fillColor=none;collapsible=0;dropTarget=0;points=[[0,0.5],[1,0.5]];portConstraint=eastwest;top=0;left=0;right=0;bottom=0;" vertex="1" parent="lNLqZQGqbrdsQ3avqAJ8-134">
          <mxGeometry y="60" width="180" height="30" as="geometry" />
        </mxCell>
        <mxCell id="lNLqZQGqbrdsQ3avqAJ8-139" value="" style="shape=partialRectangle;connectable=0;fillColor=none;top=0;left=0;bottom=0;right=0;editable=1;overflow=hidden;whiteSpace=wrap;html=1;" vertex="1" parent="lNLqZQGqbrdsQ3avqAJ8-138">
          <mxGeometry width="30" height="30" as="geometry">
            <mxRectangle width="30" height="30" as="alternateBounds" />
          </mxGeometry>
        </mxCell>
        <mxCell id="lNLqZQGqbrdsQ3avqAJ8-140" value="Nom/Name" style="shape=partialRectangle;connectable=0;fillColor=none;top=0;left=0;bottom=0;right=0;align=left;spacingLeft=6;overflow=hidden;whiteSpace=wrap;html=1;" vertex="1" parent="lNLqZQGqbrdsQ3avqAJ8-138">
          <mxGeometry x="30" width="150" height="30" as="geometry">
            <mxRectangle width="150" height="30" as="alternateBounds" />
          </mxGeometry>
        </mxCell>
        <mxCell id="lNLqZQGqbrdsQ3avqAJ8-141" value="Pages" style="shape=table;startSize=30;container=1;collapsible=1;childLayout=tableLayout;fixedRows=1;rowLines=0;fontStyle=1;align=center;resizeLast=1;html=1;" vertex="1" parent="lNLqZQGqbrdsQ3avqAJ8-221">
          <mxGeometry x="1750" y="920" width="180" height="150" as="geometry" />
        </mxCell>
        <mxCell id="lNLqZQGqbrdsQ3avqAJ8-142" value="" style="shape=tableRow;horizontal=0;startSize=0;swimlaneHead=0;swimlaneBody=0;fillColor=none;collapsible=0;dropTarget=0;points=[[0,0.5],[1,0.5]];portConstraint=eastwest;top=0;left=0;right=0;bottom=1;" vertex="1" parent="lNLqZQGqbrdsQ3avqAJ8-141">
          <mxGeometry y="30" width="180" height="30" as="geometry" />
        </mxCell>
        <mxCell id="lNLqZQGqbrdsQ3avqAJ8-143" value="PK" style="shape=partialRectangle;connectable=0;fillColor=none;top=0;left=0;bottom=0;right=0;fontStyle=1;overflow=hidden;whiteSpace=wrap;html=1;" vertex="1" parent="lNLqZQGqbrdsQ3avqAJ8-142">
          <mxGeometry width="50" height="30" as="geometry">
            <mxRectangle width="50" height="30" as="alternateBounds" />
          </mxGeometry>
        </mxCell>
        <mxCell id="lNLqZQGqbrdsQ3avqAJ8-144" value="PS" style="shape=partialRectangle;connectable=0;fillColor=none;top=0;left=0;bottom=0;right=0;align=left;spacingLeft=6;fontStyle=5;overflow=hidden;whiteSpace=wrap;html=1;" vertex="1" parent="lNLqZQGqbrdsQ3avqAJ8-142">
          <mxGeometry x="50" width="130" height="30" as="geometry">
            <mxRectangle width="130" height="30" as="alternateBounds" />
          </mxGeometry>
        </mxCell>
        <mxCell id="lNLqZQGqbrdsQ3avqAJ8-145" value="" style="shape=tableRow;horizontal=0;startSize=0;swimlaneHead=0;swimlaneBody=0;fillColor=none;collapsible=0;dropTarget=0;points=[[0,0.5],[1,0.5]];portConstraint=eastwest;top=0;left=0;right=0;bottom=0;" vertex="1" parent="lNLqZQGqbrdsQ3avqAJ8-141">
          <mxGeometry y="60" width="180" height="30" as="geometry" />
        </mxCell>
        <mxCell id="lNLqZQGqbrdsQ3avqAJ8-146" value="" style="shape=partialRectangle;connectable=0;fillColor=none;top=0;left=0;bottom=0;right=0;editable=1;overflow=hidden;whiteSpace=wrap;html=1;" vertex="1" parent="lNLqZQGqbrdsQ3avqAJ8-145">
          <mxGeometry width="50" height="30" as="geometry">
            <mxRectangle width="50" height="30" as="alternateBounds" />
          </mxGeometry>
        </mxCell>
        <mxCell id="lNLqZQGqbrdsQ3avqAJ8-147" value="Pages" style="shape=partialRectangle;connectable=0;fillColor=none;top=0;left=0;bottom=0;right=0;align=left;spacingLeft=6;overflow=hidden;whiteSpace=wrap;html=1;" vertex="1" parent="lNLqZQGqbrdsQ3avqAJ8-145">
          <mxGeometry x="50" width="130" height="30" as="geometry">
            <mxRectangle width="130" height="30" as="alternateBounds" />
          </mxGeometry>
        </mxCell>
        <mxCell id="lNLqZQGqbrdsQ3avqAJ8-148" value="" style="shape=tableRow;horizontal=0;startSize=0;swimlaneHead=0;swimlaneBody=0;fillColor=none;collapsible=0;dropTarget=0;points=[[0,0.5],[1,0.5]];portConstraint=eastwest;top=0;left=0;right=0;bottom=0;" vertex="1" parent="lNLqZQGqbrdsQ3avqAJ8-141">
          <mxGeometry y="90" width="180" height="30" as="geometry" />
        </mxCell>
        <mxCell id="lNLqZQGqbrdsQ3avqAJ8-149" value="FK_S" style="shape=partialRectangle;connectable=0;fillColor=none;top=0;left=0;bottom=0;right=0;editable=1;overflow=hidden;whiteSpace=wrap;html=1;" vertex="1" parent="lNLqZQGqbrdsQ3avqAJ8-148">
          <mxGeometry width="50" height="30" as="geometry">
            <mxRectangle width="50" height="30" as="alternateBounds" />
          </mxGeometry>
        </mxCell>
        <mxCell id="lNLqZQGqbrdsQ3avqAJ8-150" value="Section" style="shape=partialRectangle;connectable=0;fillColor=none;top=0;left=0;bottom=0;right=0;align=left;spacingLeft=6;overflow=hidden;whiteSpace=wrap;html=1;" vertex="1" parent="lNLqZQGqbrdsQ3avqAJ8-148">
          <mxGeometry x="50" width="130" height="30" as="geometry">
            <mxRectangle width="130" height="30" as="alternateBounds" />
          </mxGeometry>
        </mxCell>
        <mxCell id="lNLqZQGqbrdsQ3avqAJ8-151" value="" style="shape=tableRow;horizontal=0;startSize=0;swimlaneHead=0;swimlaneBody=0;fillColor=none;collapsible=0;dropTarget=0;points=[[0,0.5],[1,0.5]];portConstraint=eastwest;top=0;left=0;right=0;bottom=0;" vertex="1" parent="lNLqZQGqbrdsQ3avqAJ8-141">
          <mxGeometry y="120" width="180" height="30" as="geometry" />
        </mxCell>
        <mxCell id="lNLqZQGqbrdsQ3avqAJ8-152" value="FK_AV" style="shape=partialRectangle;connectable=0;fillColor=none;top=0;left=0;bottom=0;right=0;editable=1;overflow=hidden;whiteSpace=wrap;html=1;" vertex="1" parent="lNLqZQGqbrdsQ3avqAJ8-151">
          <mxGeometry width="50" height="30" as="geometry">
            <mxRectangle width="50" height="30" as="alternateBounds" />
          </mxGeometry>
        </mxCell>
        <mxCell id="lNLqZQGqbrdsQ3avqAJ8-153" value="Vita" style="shape=partialRectangle;connectable=0;fillColor=none;top=0;left=0;bottom=0;right=0;align=left;spacingLeft=6;overflow=hidden;whiteSpace=wrap;html=1;" vertex="1" parent="lNLqZQGqbrdsQ3avqAJ8-151">
          <mxGeometry x="50" width="130" height="30" as="geometry">
            <mxRectangle width="130" height="30" as="alternateBounds" />
          </mxGeometry>
        </mxCell>
        <mxCell id="lNLqZQGqbrdsQ3avqAJ8-154" value="Localisation_Spécifique" style="shape=table;startSize=30;container=1;collapsible=1;childLayout=tableLayout;fixedRows=1;rowLines=0;fontStyle=1;align=center;resizeLast=1;html=1;" vertex="1" parent="lNLqZQGqbrdsQ3avqAJ8-221">
          <mxGeometry x="460" y="1030" width="180" height="180" as="geometry" />
        </mxCell>
        <mxCell id="lNLqZQGqbrdsQ3avqAJ8-155" value="" style="shape=tableRow;horizontal=0;startSize=0;swimlaneHead=0;swimlaneBody=0;fillColor=none;collapsible=0;dropTarget=0;points=[[0,0.5],[1,0.5]];portConstraint=eastwest;top=0;left=0;right=0;bottom=1;" vertex="1" parent="lNLqZQGqbrdsQ3avqAJ8-154">
          <mxGeometry y="30" width="180" height="30" as="geometry" />
        </mxCell>
        <mxCell id="lNLqZQGqbrdsQ3avqAJ8-156" value="PK" style="shape=partialRectangle;connectable=0;fillColor=none;top=0;left=0;bottom=0;right=0;fontStyle=1;overflow=hidden;whiteSpace=wrap;html=1;" vertex="1" parent="lNLqZQGqbrdsQ3avqAJ8-155">
          <mxGeometry width="50" height="30" as="geometry">
            <mxRectangle width="50" height="30" as="alternateBounds" />
          </mxGeometry>
        </mxCell>
        <mxCell id="lNLqZQGqbrdsQ3avqAJ8-157" value="LS" style="shape=partialRectangle;connectable=0;fillColor=none;top=0;left=0;bottom=0;right=0;align=left;spacingLeft=6;fontStyle=5;overflow=hidden;whiteSpace=wrap;html=1;" vertex="1" parent="lNLqZQGqbrdsQ3avqAJ8-155">
          <mxGeometry x="50" width="130" height="30" as="geometry">
            <mxRectangle width="130" height="30" as="alternateBounds" />
          </mxGeometry>
        </mxCell>
        <mxCell id="lNLqZQGqbrdsQ3avqAJ8-158" value="" style="shape=tableRow;horizontal=0;startSize=0;swimlaneHead=0;swimlaneBody=0;fillColor=none;collapsible=0;dropTarget=0;points=[[0,0.5],[1,0.5]];portConstraint=eastwest;top=0;left=0;right=0;bottom=0;" vertex="1" parent="lNLqZQGqbrdsQ3avqAJ8-154">
          <mxGeometry y="60" width="180" height="30" as="geometry" />
        </mxCell>
        <mxCell id="lNLqZQGqbrdsQ3avqAJ8-159" value="" style="shape=partialRectangle;connectable=0;fillColor=none;top=0;left=0;bottom=0;right=0;editable=1;overflow=hidden;whiteSpace=wrap;html=1;" vertex="1" parent="lNLqZQGqbrdsQ3avqAJ8-158">
          <mxGeometry width="50" height="30" as="geometry">
            <mxRectangle width="50" height="30" as="alternateBounds" />
          </mxGeometry>
        </mxCell>
        <mxCell id="lNLqZQGqbrdsQ3avqAJ8-160" value="Nom/Name" style="shape=partialRectangle;connectable=0;fillColor=none;top=0;left=0;bottom=0;right=0;align=left;spacingLeft=6;overflow=hidden;whiteSpace=wrap;html=1;" vertex="1" parent="lNLqZQGqbrdsQ3avqAJ8-158">
          <mxGeometry x="50" width="130" height="30" as="geometry">
            <mxRectangle width="130" height="30" as="alternateBounds" />
          </mxGeometry>
        </mxCell>
        <mxCell id="lNLqZQGqbrdsQ3avqAJ8-161" value="" style="shape=tableRow;horizontal=0;startSize=0;swimlaneHead=0;swimlaneBody=0;fillColor=none;collapsible=0;dropTarget=0;points=[[0,0.5],[1,0.5]];portConstraint=eastwest;top=0;left=0;right=0;bottom=0;" vertex="1" parent="lNLqZQGqbrdsQ3avqAJ8-154">
          <mxGeometry y="90" width="180" height="30" as="geometry" />
        </mxCell>
        <mxCell id="lNLqZQGqbrdsQ3avqAJ8-162" value="" style="shape=partialRectangle;connectable=0;fillColor=none;top=0;left=0;bottom=0;right=0;editable=1;overflow=hidden;whiteSpace=wrap;html=1;" vertex="1" parent="lNLqZQGqbrdsQ3avqAJ8-161">
          <mxGeometry width="50" height="30" as="geometry">
            <mxRectangle width="50" height="30" as="alternateBounds" />
          </mxGeometry>
        </mxCell>
        <mxCell id="lNLqZQGqbrdsQ3avqAJ8-163" value="Latitude" style="shape=partialRectangle;connectable=0;fillColor=none;top=0;left=0;bottom=0;right=0;align=left;spacingLeft=6;overflow=hidden;whiteSpace=wrap;html=1;" vertex="1" parent="lNLqZQGqbrdsQ3avqAJ8-161">
          <mxGeometry x="50" width="130" height="30" as="geometry">
            <mxRectangle width="130" height="30" as="alternateBounds" />
          </mxGeometry>
        </mxCell>
        <mxCell id="lNLqZQGqbrdsQ3avqAJ8-164" value="" style="shape=tableRow;horizontal=0;startSize=0;swimlaneHead=0;swimlaneBody=0;fillColor=none;collapsible=0;dropTarget=0;points=[[0,0.5],[1,0.5]];portConstraint=eastwest;top=0;left=0;right=0;bottom=0;" vertex="1" parent="lNLqZQGqbrdsQ3avqAJ8-154">
          <mxGeometry y="120" width="180" height="30" as="geometry" />
        </mxCell>
        <mxCell id="lNLqZQGqbrdsQ3avqAJ8-165" value="" style="shape=partialRectangle;connectable=0;fillColor=none;top=0;left=0;bottom=0;right=0;editable=1;overflow=hidden;whiteSpace=wrap;html=1;" vertex="1" parent="lNLqZQGqbrdsQ3avqAJ8-164">
          <mxGeometry width="50" height="30" as="geometry">
            <mxRectangle width="50" height="30" as="alternateBounds" />
          </mxGeometry>
        </mxCell>
        <mxCell id="lNLqZQGqbrdsQ3avqAJ8-166" value="Longitude" style="shape=partialRectangle;connectable=0;fillColor=none;top=0;left=0;bottom=0;right=0;align=left;spacingLeft=6;overflow=hidden;whiteSpace=wrap;html=1;" vertex="1" parent="lNLqZQGqbrdsQ3avqAJ8-164">
          <mxGeometry x="50" width="130" height="30" as="geometry">
            <mxRectangle width="130" height="30" as="alternateBounds" />
          </mxGeometry>
        </mxCell>
        <mxCell id="lNLqZQGqbrdsQ3avqAJ8-167" style="shape=tableRow;horizontal=0;startSize=0;swimlaneHead=0;swimlaneBody=0;fillColor=none;collapsible=0;dropTarget=0;points=[[0,0.5],[1,0.5]];portConstraint=eastwest;top=0;left=0;right=0;bottom=0;" vertex="1" parent="lNLqZQGqbrdsQ3avqAJ8-154">
          <mxGeometry y="150" width="180" height="30" as="geometry" />
        </mxCell>
        <mxCell id="lNLqZQGqbrdsQ3avqAJ8-168" value="FK_LG" style="shape=partialRectangle;connectable=0;fillColor=none;top=0;left=0;bottom=0;right=0;editable=1;overflow=hidden;whiteSpace=wrap;html=1;" vertex="1" parent="lNLqZQGqbrdsQ3avqAJ8-167">
          <mxGeometry width="50" height="30" as="geometry">
            <mxRectangle width="50" height="30" as="alternateBounds" />
          </mxGeometry>
        </mxCell>
        <mxCell id="lNLqZQGqbrdsQ3avqAJ8-169" value="Localisation_Générale" style="shape=partialRectangle;connectable=0;fillColor=none;top=0;left=0;bottom=0;right=0;align=left;spacingLeft=6;overflow=hidden;whiteSpace=wrap;html=1;" vertex="1" parent="lNLqZQGqbrdsQ3avqAJ8-167">
          <mxGeometry x="50" width="130" height="30" as="geometry">
            <mxRectangle width="130" height="30" as="alternateBounds" />
          </mxGeometry>
        </mxCell>
        <mxCell id="lNLqZQGqbrdsQ3avqAJ8-170" value="Localisation_Générale" style="shape=table;startSize=30;container=1;collapsible=1;childLayout=tableLayout;fixedRows=1;rowLines=0;fontStyle=1;align=center;resizeLast=1;html=1;" vertex="1" parent="lNLqZQGqbrdsQ3avqAJ8-221">
          <mxGeometry x="450" y="780" width="180" height="90" as="geometry" />
        </mxCell>
        <mxCell id="lNLqZQGqbrdsQ3avqAJ8-171" value="" style="shape=tableRow;horizontal=0;startSize=0;swimlaneHead=0;swimlaneBody=0;fillColor=none;collapsible=0;dropTarget=0;points=[[0,0.5],[1,0.5]];portConstraint=eastwest;top=0;left=0;right=0;bottom=1;" vertex="1" parent="lNLqZQGqbrdsQ3avqAJ8-170">
          <mxGeometry y="30" width="180" height="30" as="geometry" />
        </mxCell>
        <mxCell id="lNLqZQGqbrdsQ3avqAJ8-172" value="PK" style="shape=partialRectangle;connectable=0;fillColor=none;top=0;left=0;bottom=0;right=0;fontStyle=1;overflow=hidden;whiteSpace=wrap;html=1;" vertex="1" parent="lNLqZQGqbrdsQ3avqAJ8-171">
          <mxGeometry width="50" height="30" as="geometry">
            <mxRectangle width="50" height="30" as="alternateBounds" />
          </mxGeometry>
        </mxCell>
        <mxCell id="lNLqZQGqbrdsQ3avqAJ8-173" value="LG" style="shape=partialRectangle;connectable=0;fillColor=none;top=0;left=0;bottom=0;right=0;align=left;spacingLeft=6;fontStyle=5;overflow=hidden;whiteSpace=wrap;html=1;" vertex="1" parent="lNLqZQGqbrdsQ3avqAJ8-171">
          <mxGeometry x="50" width="130" height="30" as="geometry">
            <mxRectangle width="130" height="30" as="alternateBounds" />
          </mxGeometry>
        </mxCell>
        <mxCell id="lNLqZQGqbrdsQ3avqAJ8-174" value="" style="shape=tableRow;horizontal=0;startSize=0;swimlaneHead=0;swimlaneBody=0;fillColor=none;collapsible=0;dropTarget=0;points=[[0,0.5],[1,0.5]];portConstraint=eastwest;top=0;left=0;right=0;bottom=0;" vertex="1" parent="lNLqZQGqbrdsQ3avqAJ8-170">
          <mxGeometry y="60" width="180" height="30" as="geometry" />
        </mxCell>
        <mxCell id="lNLqZQGqbrdsQ3avqAJ8-175" value="" style="shape=partialRectangle;connectable=0;fillColor=none;top=0;left=0;bottom=0;right=0;editable=1;overflow=hidden;whiteSpace=wrap;html=1;" vertex="1" parent="lNLqZQGqbrdsQ3avqAJ8-174">
          <mxGeometry width="50" height="30" as="geometry">
            <mxRectangle width="50" height="30" as="alternateBounds" />
          </mxGeometry>
        </mxCell>
        <mxCell id="lNLqZQGqbrdsQ3avqAJ8-176" value="Nom/Name" style="shape=partialRectangle;connectable=0;fillColor=none;top=0;left=0;bottom=0;right=0;align=left;spacingLeft=6;overflow=hidden;whiteSpace=wrap;html=1;" vertex="1" parent="lNLqZQGqbrdsQ3avqAJ8-174">
          <mxGeometry x="50" width="130" height="30" as="geometry">
            <mxRectangle width="130" height="30" as="alternateBounds" />
          </mxGeometry>
        </mxCell>
        <mxCell id="lNLqZQGqbrdsQ3avqAJ8-186" value="Artiste_Général" style="shape=table;startSize=30;container=1;collapsible=1;childLayout=tableLayout;fixedRows=1;rowLines=0;fontStyle=1;align=center;resizeLast=1;html=1;" vertex="1" parent="lNLqZQGqbrdsQ3avqAJ8-221">
          <mxGeometry x="2020" y="740" width="180" height="120" as="geometry" />
        </mxCell>
        <mxCell id="lNLqZQGqbrdsQ3avqAJ8-187" value="" style="shape=tableRow;horizontal=0;startSize=0;swimlaneHead=0;swimlaneBody=0;fillColor=none;collapsible=0;dropTarget=0;points=[[0,0.5],[1,0.5]];portConstraint=eastwest;top=0;left=0;right=0;bottom=1;" vertex="1" parent="lNLqZQGqbrdsQ3avqAJ8-186">
          <mxGeometry y="30" width="180" height="30" as="geometry" />
        </mxCell>
        <mxCell id="lNLqZQGqbrdsQ3avqAJ8-188" value="PK" style="shape=partialRectangle;connectable=0;fillColor=none;top=0;left=0;bottom=0;right=0;fontStyle=1;overflow=hidden;whiteSpace=wrap;html=1;" vertex="1" parent="lNLqZQGqbrdsQ3avqAJ8-187">
          <mxGeometry width="50" height="30" as="geometry">
            <mxRectangle width="50" height="30" as="alternateBounds" />
          </mxGeometry>
        </mxCell>
        <mxCell id="lNLqZQGqbrdsQ3avqAJ8-189" value="AG" style="shape=partialRectangle;connectable=0;fillColor=none;top=0;left=0;bottom=0;right=0;align=left;spacingLeft=6;fontStyle=5;overflow=hidden;whiteSpace=wrap;html=1;" vertex="1" parent="lNLqZQGqbrdsQ3avqAJ8-187">
          <mxGeometry x="50" width="130" height="30" as="geometry">
            <mxRectangle width="130" height="30" as="alternateBounds" />
          </mxGeometry>
        </mxCell>
        <mxCell id="lNLqZQGqbrdsQ3avqAJ8-190" value="" style="shape=tableRow;horizontal=0;startSize=0;swimlaneHead=0;swimlaneBody=0;fillColor=none;collapsible=0;dropTarget=0;points=[[0,0.5],[1,0.5]];portConstraint=eastwest;top=0;left=0;right=0;bottom=0;" vertex="1" parent="lNLqZQGqbrdsQ3avqAJ8-186">
          <mxGeometry y="60" width="180" height="30" as="geometry" />
        </mxCell>
        <mxCell id="lNLqZQGqbrdsQ3avqAJ8-191" value="" style="shape=partialRectangle;connectable=0;fillColor=none;top=0;left=0;bottom=0;right=0;editable=1;overflow=hidden;whiteSpace=wrap;html=1;" vertex="1" parent="lNLqZQGqbrdsQ3avqAJ8-190">
          <mxGeometry width="50" height="30" as="geometry">
            <mxRectangle width="50" height="30" as="alternateBounds" />
          </mxGeometry>
        </mxCell>
        <mxCell id="lNLqZQGqbrdsQ3avqAJ8-192" value="Nom/Name" style="shape=partialRectangle;connectable=0;fillColor=none;top=0;left=0;bottom=0;right=0;align=left;spacingLeft=6;overflow=hidden;whiteSpace=wrap;html=1;" vertex="1" parent="lNLqZQGqbrdsQ3avqAJ8-190">
          <mxGeometry x="50" width="130" height="30" as="geometry">
            <mxRectangle width="130" height="30" as="alternateBounds" />
          </mxGeometry>
        </mxCell>
        <mxCell id="lNLqZQGqbrdsQ3avqAJ8-193" value="" style="shape=tableRow;horizontal=0;startSize=0;swimlaneHead=0;swimlaneBody=0;fillColor=none;collapsible=0;dropTarget=0;points=[[0,0.5],[1,0.5]];portConstraint=eastwest;top=0;left=0;right=0;bottom=0;" vertex="1" parent="lNLqZQGqbrdsQ3avqAJ8-186">
          <mxGeometry y="90" width="180" height="30" as="geometry" />
        </mxCell>
        <mxCell id="lNLqZQGqbrdsQ3avqAJ8-194" value="FK_AV" style="shape=partialRectangle;connectable=0;fillColor=none;top=0;left=0;bottom=0;right=0;editable=1;overflow=hidden;whiteSpace=wrap;html=1;" vertex="1" parent="lNLqZQGqbrdsQ3avqAJ8-193">
          <mxGeometry width="50" height="30" as="geometry">
            <mxRectangle width="50" height="30" as="alternateBounds" />
          </mxGeometry>
        </mxCell>
        <mxCell id="lNLqZQGqbrdsQ3avqAJ8-195" value="Vita" style="shape=partialRectangle;connectable=0;fillColor=none;top=0;left=0;bottom=0;right=0;align=left;spacingLeft=6;overflow=hidden;whiteSpace=wrap;html=1;" vertex="1" parent="lNLqZQGqbrdsQ3avqAJ8-193">
          <mxGeometry x="50" width="130" height="30" as="geometry">
            <mxRectangle width="130" height="30" as="alternateBounds" />
          </mxGeometry>
        </mxCell>
        <mxCell id="lNLqZQGqbrdsQ3avqAJ8-199" style="edgeStyle=orthogonalEdgeStyle;rounded=0;orthogonalLoop=1;jettySize=auto;html=1;exitX=0;exitY=0.5;exitDx=0;exitDy=0;entryX=0;entryY=0.5;entryDx=0;entryDy=0;" edge="1" parent="lNLqZQGqbrdsQ3avqAJ8-221" source="lNLqZQGqbrdsQ3avqAJ8-171" target="lNLqZQGqbrdsQ3avqAJ8-167">
          <mxGeometry relative="1" as="geometry" />
        </mxCell>
        <mxCell id="lNLqZQGqbrdsQ3avqAJ8-236" value="Specific Landmark" style="edgeLabel;html=1;align=center;verticalAlign=middle;resizable=0;points=[];" vertex="1" connectable="0" parent="lNLqZQGqbrdsQ3avqAJ8-199">
          <mxGeometry x="-0.3708" relative="1" as="geometry">
            <mxPoint as="offset" />
          </mxGeometry>
        </mxCell>
        <mxCell id="lNLqZQGqbrdsQ3avqAJ8-200" style="edgeStyle=orthogonalEdgeStyle;rounded=0;orthogonalLoop=1;jettySize=auto;html=1;exitX=0;exitY=0.5;exitDx=0;exitDy=0;entryX=0;entryY=0.5;entryDx=0;entryDy=0;" edge="1" parent="lNLqZQGqbrdsQ3avqAJ8-221" source="lNLqZQGqbrdsQ3avqAJ8-135" target="lNLqZQGqbrdsQ3avqAJ8-51">
          <mxGeometry relative="1" as="geometry">
            <Array as="points">
              <mxPoint x="910" y="985" />
              <mxPoint x="910" y="385" />
            </Array>
          </mxGeometry>
        </mxCell>
        <mxCell id="lNLqZQGqbrdsQ3avqAJ8-223" value="Is part of" style="edgeLabel;html=1;align=center;verticalAlign=middle;resizable=0;points=[];" vertex="1" connectable="0" parent="lNLqZQGqbrdsQ3avqAJ8-200">
          <mxGeometry x="0.6678" y="3" relative="1" as="geometry">
            <mxPoint as="offset" />
          </mxGeometry>
        </mxCell>
        <mxCell id="lNLqZQGqbrdsQ3avqAJ8-201" style="edgeStyle=orthogonalEdgeStyle;rounded=0;orthogonalLoop=1;jettySize=auto;html=1;exitX=0;exitY=0.5;exitDx=0;exitDy=0;entryX=0;entryY=0.5;entryDx=0;entryDy=0;" edge="1" parent="lNLqZQGqbrdsQ3avqAJ8-221" source="lNLqZQGqbrdsQ3avqAJ8-135" target="lNLqZQGqbrdsQ3avqAJ8-23">
          <mxGeometry relative="1" as="geometry">
            <mxPoint x="750" y="460" as="targetPoint" />
            <Array as="points">
              <mxPoint x="150" y="985" />
              <mxPoint x="150" y="385" />
            </Array>
          </mxGeometry>
        </mxCell>
        <mxCell id="lNLqZQGqbrdsQ3avqAJ8-222" value="Is part of" style="edgeLabel;html=1;align=center;verticalAlign=middle;resizable=0;points=[];" vertex="1" connectable="0" parent="lNLqZQGqbrdsQ3avqAJ8-201">
          <mxGeometry x="-0.3762" y="-2" relative="1" as="geometry">
            <mxPoint as="offset" />
          </mxGeometry>
        </mxCell>
        <mxCell id="lNLqZQGqbrdsQ3avqAJ8-227" value="Cited in" style="edgeLabel;html=1;align=center;verticalAlign=middle;resizable=0;points=[];" vertex="1" connectable="0" parent="lNLqZQGqbrdsQ3avqAJ8-201">
          <mxGeometry x="0.7682" y="1" relative="1" as="geometry">
            <mxPoint y="-1" as="offset" />
          </mxGeometry>
        </mxCell>
        <mxCell id="lNLqZQGqbrdsQ3avqAJ8-202" style="edgeStyle=orthogonalEdgeStyle;rounded=0;orthogonalLoop=1;jettySize=auto;html=1;exitX=0;exitY=0.5;exitDx=0;exitDy=0;entryX=0;entryY=0.5;entryDx=0;entryDy=0;" edge="1" parent="lNLqZQGqbrdsQ3avqAJ8-221" source="lNLqZQGqbrdsQ3avqAJ8-135" target="lNLqZQGqbrdsQ3avqAJ8-107">
          <mxGeometry relative="1" as="geometry">
            <Array as="points">
              <mxPoint x="1130" y="985" />
              <mxPoint x="1130" y="510" />
              <mxPoint x="1490" y="510" />
              <mxPoint x="1490" y="340" />
            </Array>
          </mxGeometry>
        </mxCell>
        <mxCell id="lNLqZQGqbrdsQ3avqAJ8-224" value="Is part of" style="edgeLabel;html=1;align=center;verticalAlign=middle;resizable=0;points=[];" vertex="1" connectable="0" parent="lNLqZQGqbrdsQ3avqAJ8-202">
          <mxGeometry x="0.8374" relative="1" as="geometry">
            <mxPoint y="-1" as="offset" />
          </mxGeometry>
        </mxCell>
        <mxCell id="lNLqZQGqbrdsQ3avqAJ8-203" style="edgeStyle=orthogonalEdgeStyle;rounded=0;orthogonalLoop=1;jettySize=auto;html=1;exitX=0;exitY=0.5;exitDx=0;exitDy=0;entryX=0;entryY=0.5;entryDx=0;entryDy=0;" edge="1" parent="lNLqZQGqbrdsQ3avqAJ8-221" source="lNLqZQGqbrdsQ3avqAJ8-135" target="lNLqZQGqbrdsQ3avqAJ8-79">
          <mxGeometry relative="1" as="geometry">
            <Array as="points">
              <mxPoint x="1130" y="985" />
              <mxPoint x="1130" y="650" />
              <mxPoint x="2120" y="650" />
              <mxPoint x="2120" y="215" />
            </Array>
          </mxGeometry>
        </mxCell>
        <mxCell id="lNLqZQGqbrdsQ3avqAJ8-225" value="Is part of" style="edgeLabel;html=1;align=center;verticalAlign=middle;resizable=0;points=[];" vertex="1" connectable="0" parent="lNLqZQGqbrdsQ3avqAJ8-203">
          <mxGeometry x="0.7035" y="2" relative="1" as="geometry">
            <mxPoint y="-1" as="offset" />
          </mxGeometry>
        </mxCell>
        <mxCell id="lNLqZQGqbrdsQ3avqAJ8-204" style="edgeStyle=orthogonalEdgeStyle;rounded=0;orthogonalLoop=1;jettySize=auto;html=1;exitX=0;exitY=0.5;exitDx=0;exitDy=0;entryX=0;entryY=0.5;entryDx=0;entryDy=0;" edge="1" parent="lNLqZQGqbrdsQ3avqAJ8-221" source="lNLqZQGqbrdsQ3avqAJ8-135" target="lNLqZQGqbrdsQ3avqAJ8-148">
          <mxGeometry relative="1" as="geometry">
            <Array as="points">
              <mxPoint x="1110" y="985" />
              <mxPoint x="1110" y="1100" />
              <mxPoint x="1710" y="1100" />
              <mxPoint x="1710" y="1025" />
            </Array>
          </mxGeometry>
        </mxCell>
        <mxCell id="lNLqZQGqbrdsQ3avqAJ8-231" value="Is part of" style="edgeLabel;html=1;align=center;verticalAlign=middle;resizable=0;points=[];" vertex="1" connectable="0" parent="lNLqZQGqbrdsQ3avqAJ8-204">
          <mxGeometry x="0.2851" y="-4" relative="1" as="geometry">
            <mxPoint x="-1" y="-4" as="offset" />
          </mxGeometry>
        </mxCell>
        <mxCell id="lNLqZQGqbrdsQ3avqAJ8-208" style="edgeStyle=orthogonalEdgeStyle;rounded=0;orthogonalLoop=1;jettySize=auto;html=1;exitX=0;exitY=0.5;exitDx=0;exitDy=0;entryX=0;entryY=0.5;entryDx=0;entryDy=0;" edge="1" parent="lNLqZQGqbrdsQ3avqAJ8-221" source="lNLqZQGqbrdsQ3avqAJ8-155" target="lNLqZQGqbrdsQ3avqAJ8-14">
          <mxGeometry relative="1" as="geometry">
            <Array as="points">
              <mxPoint x="200" y="1075" />
              <mxPoint x="200" y="285" />
            </Array>
          </mxGeometry>
        </mxCell>
        <mxCell id="lNLqZQGqbrdsQ3avqAJ8-237" value="Was located specifically at" style="edgeLabel;html=1;align=center;verticalAlign=middle;resizable=0;points=[];" vertex="1" connectable="0" parent="lNLqZQGqbrdsQ3avqAJ8-208">
          <mxGeometry x="-0.7072" y="-1" relative="1" as="geometry">
            <mxPoint x="1" as="offset" />
          </mxGeometry>
        </mxCell>
        <mxCell id="lNLqZQGqbrdsQ3avqAJ8-209" style="edgeStyle=orthogonalEdgeStyle;rounded=0;orthogonalLoop=1;jettySize=auto;html=1;exitX=0;exitY=0.5;exitDx=0;exitDy=0;entryX=0;entryY=0.5;entryDx=0;entryDy=0;" edge="1" parent="lNLqZQGqbrdsQ3avqAJ8-221" source="lNLqZQGqbrdsQ3avqAJ8-187" target="lNLqZQGqbrdsQ3avqAJ8-8">
          <mxGeometry relative="1" as="geometry">
            <Array as="points">
              <mxPoint x="1970" y="785" />
              <mxPoint x="1970" y="710" />
              <mxPoint x="70" y="710" />
              <mxPoint x="70" y="205" />
            </Array>
          </mxGeometry>
        </mxCell>
        <mxCell id="lNLqZQGqbrdsQ3avqAJ8-245" value="Was created by" style="edgeLabel;html=1;align=center;verticalAlign=middle;resizable=0;points=[];" vertex="1" connectable="0" parent="lNLqZQGqbrdsQ3avqAJ8-209">
          <mxGeometry x="0.9147" y="-1" relative="1" as="geometry">
            <mxPoint as="offset" />
          </mxGeometry>
        </mxCell>
        <mxCell id="lNLqZQGqbrdsQ3avqAJ8-210" style="edgeStyle=orthogonalEdgeStyle;rounded=0;orthogonalLoop=1;jettySize=auto;html=1;exitX=0;exitY=0.5;exitDx=0;exitDy=0;entryX=0;entryY=0.5;entryDx=0;entryDy=0;" edge="1" parent="lNLqZQGqbrdsQ3avqAJ8-221" source="lNLqZQGqbrdsQ3avqAJ8-187" target="lNLqZQGqbrdsQ3avqAJ8-11">
          <mxGeometry relative="1" as="geometry">
            <Array as="points">
              <mxPoint x="1940" y="785" />
              <mxPoint x="1940" y="750" />
              <mxPoint y="750" />
              <mxPoint y="240" />
            </Array>
          </mxGeometry>
        </mxCell>
        <mxCell id="lNLqZQGqbrdsQ3avqAJ8-246" value="Was created in collaboration with" style="edgeLabel;html=1;align=center;verticalAlign=middle;resizable=0;points=[];" vertex="1" connectable="0" parent="lNLqZQGqbrdsQ3avqAJ8-210">
          <mxGeometry x="0.8971" y="-2" relative="1" as="geometry">
            <mxPoint x="44" y="-2" as="offset" />
          </mxGeometry>
        </mxCell>
        <mxCell id="lNLqZQGqbrdsQ3avqAJ8-211" style="edgeStyle=orthogonalEdgeStyle;rounded=0;orthogonalLoop=1;jettySize=auto;html=1;exitX=0;exitY=0.5;exitDx=0;exitDy=0;entryX=0;entryY=0.5;entryDx=0;entryDy=0;" edge="1" parent="lNLqZQGqbrdsQ3avqAJ8-221" source="lNLqZQGqbrdsQ3avqAJ8-142" target="lNLqZQGqbrdsQ3avqAJ8-110">
          <mxGeometry relative="1" as="geometry">
            <Array as="points">
              <mxPoint x="1720" y="965" />
              <mxPoint x="1720" y="910" />
              <mxPoint x="1580" y="910" />
              <mxPoint x="1580" y="380" />
            </Array>
          </mxGeometry>
        </mxCell>
        <mxCell id="lNLqZQGqbrdsQ3avqAJ8-232" value="Can be found in" style="edgeLabel;html=1;align=center;verticalAlign=middle;resizable=0;points=[];" vertex="1" connectable="0" parent="lNLqZQGqbrdsQ3avqAJ8-211">
          <mxGeometry x="-0.5515" relative="1" as="geometry">
            <mxPoint as="offset" />
          </mxGeometry>
        </mxCell>
        <mxCell id="lNLqZQGqbrdsQ3avqAJ8-212" style="edgeStyle=orthogonalEdgeStyle;rounded=0;orthogonalLoop=1;jettySize=auto;html=1;exitX=0;exitY=0.5;exitDx=0;exitDy=0;entryX=0;entryY=0.5;entryDx=0;entryDy=0;" edge="1" parent="lNLqZQGqbrdsQ3avqAJ8-221" source="lNLqZQGqbrdsQ3avqAJ8-142" target="lNLqZQGqbrdsQ3avqAJ8-85">
          <mxGeometry relative="1" as="geometry">
            <Array as="points">
              <mxPoint x="1730" y="965" />
              <mxPoint x="1730" y="500" />
              <mxPoint x="2160" y="500" />
              <mxPoint x="2160" y="315" />
            </Array>
          </mxGeometry>
        </mxCell>
        <mxCell id="lNLqZQGqbrdsQ3avqAJ8-234" value="Can be found in" style="edgeLabel;html=1;align=center;verticalAlign=middle;resizable=0;points=[];" vertex="1" connectable="0" parent="lNLqZQGqbrdsQ3avqAJ8-212">
          <mxGeometry x="0.1933" y="4" relative="1" as="geometry">
            <mxPoint as="offset" />
          </mxGeometry>
        </mxCell>
        <mxCell id="lNLqZQGqbrdsQ3avqAJ8-213" style="edgeStyle=orthogonalEdgeStyle;rounded=0;orthogonalLoop=1;jettySize=auto;html=1;exitX=0;exitY=0.5;exitDx=0;exitDy=0;entryX=0;entryY=0.5;entryDx=0;entryDy=0;" edge="1" parent="lNLqZQGqbrdsQ3avqAJ8-221" source="lNLqZQGqbrdsQ3avqAJ8-142" target="lNLqZQGqbrdsQ3avqAJ8-54">
          <mxGeometry relative="1" as="geometry">
            <Array as="points">
              <mxPoint x="1690" y="965" />
              <mxPoint x="1690" y="860" />
              <mxPoint x="940" y="860" />
              <mxPoint x="940" y="435" />
            </Array>
          </mxGeometry>
        </mxCell>
        <mxCell id="lNLqZQGqbrdsQ3avqAJ8-233" value="Can be found in" style="edgeLabel;html=1;align=center;verticalAlign=middle;resizable=0;points=[];" vertex="1" connectable="0" parent="lNLqZQGqbrdsQ3avqAJ8-213">
          <mxGeometry x="-0.6734" y="2" relative="1" as="geometry">
            <mxPoint x="-1" as="offset" />
          </mxGeometry>
        </mxCell>
        <mxCell id="lNLqZQGqbrdsQ3avqAJ8-214" style="edgeStyle=orthogonalEdgeStyle;rounded=0;orthogonalLoop=1;jettySize=auto;html=1;exitX=0;exitY=0.5;exitDx=0;exitDy=0;entryX=0;entryY=0.5;entryDx=0;entryDy=0;" edge="1" parent="lNLqZQGqbrdsQ3avqAJ8-221" source="lNLqZQGqbrdsQ3avqAJ8-122" target="lNLqZQGqbrdsQ3avqAJ8-39">
          <mxGeometry relative="1" as="geometry">
            <Array as="points">
              <mxPoint x="1430" y="985" />
              <mxPoint x="1430" y="890" />
              <mxPoint x="830" y="890" />
              <mxPoint x="830" y="205" />
            </Array>
          </mxGeometry>
        </mxCell>
        <mxCell id="lNLqZQGqbrdsQ3avqAJ8-242" value="Is known as a" style="edgeLabel;html=1;align=center;verticalAlign=middle;resizable=0;points=[];" vertex="1" connectable="0" parent="lNLqZQGqbrdsQ3avqAJ8-214">
          <mxGeometry x="0.8341" relative="1" as="geometry">
            <mxPoint as="offset" />
          </mxGeometry>
        </mxCell>
        <mxCell id="lNLqZQGqbrdsQ3avqAJ8-215" style="edgeStyle=orthogonalEdgeStyle;rounded=0;orthogonalLoop=1;jettySize=auto;html=1;exitX=0;exitY=0.5;exitDx=0;exitDy=0;entryX=0;entryY=0.5;entryDx=0;entryDy=0;" edge="1" parent="lNLqZQGqbrdsQ3avqAJ8-221" source="lNLqZQGqbrdsQ3avqAJ8-122" target="lNLqZQGqbrdsQ3avqAJ8-42">
          <mxGeometry relative="1" as="geometry">
            <Array as="points">
              <mxPoint x="1410" y="985" />
              <mxPoint x="1410" y="910" />
              <mxPoint x="860" y="910" />
              <mxPoint x="860" y="240" />
            </Array>
          </mxGeometry>
        </mxCell>
        <mxCell id="lNLqZQGqbrdsQ3avqAJ8-243" value="is also known as a" style="edgeLabel;html=1;align=center;verticalAlign=middle;resizable=0;points=[];" vertex="1" connectable="0" parent="lNLqZQGqbrdsQ3avqAJ8-215">
          <mxGeometry x="0.8756" y="3" relative="1" as="geometry">
            <mxPoint as="offset" />
          </mxGeometry>
        </mxCell>
        <mxCell id="lNLqZQGqbrdsQ3avqAJ8-216" style="edgeStyle=orthogonalEdgeStyle;rounded=0;orthogonalLoop=1;jettySize=auto;html=1;exitX=0;exitY=0.5;exitDx=0;exitDy=0;entryX=0;entryY=0.5;entryDx=0;entryDy=0;" edge="1" parent="lNLqZQGqbrdsQ3avqAJ8-221" source="lNLqZQGqbrdsQ3avqAJ8-122" target="lNLqZQGqbrdsQ3avqAJ8-45">
          <mxGeometry relative="1" as="geometry">
            <Array as="points">
              <mxPoint x="1450" y="985" />
              <mxPoint x="1450" y="930" />
              <mxPoint x="780" y="930" />
              <mxPoint x="780" y="285" />
            </Array>
          </mxGeometry>
        </mxCell>
        <mxCell id="lNLqZQGqbrdsQ3avqAJ8-244" value="is also known as a" style="edgeLabel;html=1;align=center;verticalAlign=middle;resizable=0;points=[];" vertex="1" connectable="0" parent="lNLqZQGqbrdsQ3avqAJ8-216">
          <mxGeometry x="-0.1137" y="1" relative="1" as="geometry">
            <mxPoint as="offset" />
          </mxGeometry>
        </mxCell>
        <mxCell id="lNLqZQGqbrdsQ3avqAJ8-217" style="edgeStyle=orthogonalEdgeStyle;rounded=0;orthogonalLoop=1;jettySize=auto;html=1;exitX=0;exitY=0.5;exitDx=0;exitDy=0;entryX=0;entryY=0.5;entryDx=0;entryDy=0;" edge="1" parent="lNLqZQGqbrdsQ3avqAJ8-221" source="lNLqZQGqbrdsQ3avqAJ8-122" target="lNLqZQGqbrdsQ3avqAJ8-98">
          <mxGeometry relative="1" as="geometry" />
        </mxCell>
        <mxCell id="lNLqZQGqbrdsQ3avqAJ8-218" style="edgeStyle=orthogonalEdgeStyle;rounded=0;orthogonalLoop=1;jettySize=auto;html=1;exitX=0;exitY=0.5;exitDx=0;exitDy=0;entryX=0;entryY=0.5;entryDx=0;entryDy=0;" edge="1" parent="lNLqZQGqbrdsQ3avqAJ8-221" source="lNLqZQGqbrdsQ3avqAJ8-33" target="lNLqZQGqbrdsQ3avqAJ8-193">
          <mxGeometry relative="1" as="geometry" />
        </mxCell>
        <mxCell id="lNLqZQGqbrdsQ3avqAJ8-229" value="Cited in" style="edgeLabel;html=1;align=center;verticalAlign=middle;resizable=0;points=[];" vertex="1" connectable="0" parent="lNLqZQGqbrdsQ3avqAJ8-218">
          <mxGeometry x="0.8079" y="-2" relative="1" as="geometry">
            <mxPoint as="offset" />
          </mxGeometry>
        </mxCell>
        <mxCell id="lNLqZQGqbrdsQ3avqAJ8-219" style="edgeStyle=orthogonalEdgeStyle;rounded=0;orthogonalLoop=1;jettySize=auto;html=1;exitX=0;exitY=0.5;exitDx=0;exitDy=0;entryX=0;entryY=0.5;entryDx=0;entryDy=0;" edge="1" parent="lNLqZQGqbrdsQ3avqAJ8-221" source="lNLqZQGqbrdsQ3avqAJ8-33" target="lNLqZQGqbrdsQ3avqAJ8-151">
          <mxGeometry relative="1" as="geometry">
            <Array as="points">
              <mxPoint x="740" y="145" />
              <mxPoint x="740" y="1055" />
            </Array>
          </mxGeometry>
        </mxCell>
        <mxCell id="lNLqZQGqbrdsQ3avqAJ8-228" value="Cited in" style="edgeLabel;html=1;align=center;verticalAlign=middle;resizable=0;points=[];" vertex="1" connectable="0" parent="lNLqZQGqbrdsQ3avqAJ8-219">
          <mxGeometry x="0.6773" y="-1" relative="1" as="geometry">
            <mxPoint as="offset" />
          </mxGeometry>
        </mxCell>
        <mxCell id="lNLqZQGqbrdsQ3avqAJ8-220" style="edgeStyle=orthogonalEdgeStyle;rounded=0;orthogonalLoop=1;jettySize=auto;html=1;exitX=0;exitY=0.5;exitDx=0;exitDy=0;entryX=0;entryY=0.5;entryDx=0;entryDy=0;" edge="1" parent="lNLqZQGqbrdsQ3avqAJ8-221" source="lNLqZQGqbrdsQ3avqAJ8-142" target="lNLqZQGqbrdsQ3avqAJ8-26">
          <mxGeometry relative="1" as="geometry">
            <Array as="points">
              <mxPoint x="1670" y="965" />
              <mxPoint x="1670" y="550" />
              <mxPoint x="230" y="550" />
              <mxPoint x="230" y="485" />
            </Array>
          </mxGeometry>
        </mxCell>
        <mxCell id="lNLqZQGqbrdsQ3avqAJ8-235" value="Can be found in" style="edgeLabel;html=1;align=center;verticalAlign=middle;resizable=0;points=[];" vertex="1" connectable="0" parent="lNLqZQGqbrdsQ3avqAJ8-220">
          <mxGeometry x="0.6924" y="3" relative="1" as="geometry">
            <mxPoint as="offset" />
          </mxGeometry>
        </mxCell>
        <mxCell id="lNLqZQGqbrdsQ3avqAJ8-238" style="edgeStyle=orthogonalEdgeStyle;rounded=0;orthogonalLoop=1;jettySize=auto;html=1;exitX=0;exitY=0.5;exitDx=0;exitDy=0;entryX=0;entryY=0.5;entryDx=0;entryDy=0;" edge="1" parent="lNLqZQGqbrdsQ3avqAJ8-221" source="lNLqZQGqbrdsQ3avqAJ8-171" target="lNLqZQGqbrdsQ3avqAJ8-17">
          <mxGeometry relative="1" as="geometry">
            <Array as="points">
              <mxPoint x="110" y="825" />
              <mxPoint x="110" y="335" />
            </Array>
          </mxGeometry>
        </mxCell>
        <mxCell id="lNLqZQGqbrdsQ3avqAJ8-239" value="Was located at" style="edgeLabel;html=1;align=center;verticalAlign=middle;resizable=0;points=[];" vertex="1" connectable="0" parent="lNLqZQGqbrdsQ3avqAJ8-238">
          <mxGeometry x="-0.6854" relative="1" as="geometry">
            <mxPoint as="offset" />
          </mxGeometry>
        </mxCell>
      </root>
    </mxGraphModel>
  </diagram>
</mxfile>
